<svg xmlns="http://www.w3.org/2000/svg" xmlns:xlink="http://www.w3.org/1999/xlink" width="517" height="519" viewBox="0 0 517 519">
  <defs>
    <clipPath id="clip-path">
      <rect id="Rectangle_3520" data-name="Rectangle 3520" width="517" height="519" transform="translate(-4229.094 -23786.627)" fill="#fff" stroke="#707070" stroke-width="1"/>
    </clipPath>
    <clipPath id="clip-path-2">
      <rect id="Rectangle_1788" data-name="Rectangle 1788" width="459.418" height="518.745" fill="none"/>
    </clipPath>
    <clipPath id="clip-path-3">
      <rect id="Rectangle_1789" data-name="Rectangle 1789" width="126.012" height="91.343" fill="none"/>
    </clipPath>
    <clipPath id="clip-path-4">
      <rect id="Rectangle_1790" data-name="Rectangle 1790" width="126.709" height="94.739" fill="none"/>
    </clipPath>
    <clipPath id="clip-path-5">
      <rect id="Rectangle_1791" data-name="Rectangle 1791" width="17.785" height="24.894" fill="none"/>
    </clipPath>
    <clipPath id="clip-path-6">
      <rect id="Rectangle_1793" data-name="Rectangle 1793" width="46.671" height="25.32" fill="none"/>
    </clipPath>
    <clipPath id="clip-path-7">
      <rect id="Rectangle_1794" data-name="Rectangle 1794" width="25.9" height="22.315" fill="none"/>
    </clipPath>
    <clipPath id="clip-path-8">
      <rect id="Rectangle_1795" data-name="Rectangle 1795" width="3.401" height="3.425" fill="none"/>
    </clipPath>
    <clipPath id="clip-path-9">
      <rect id="Rectangle_1796" data-name="Rectangle 1796" width="36.818" height="18.46" fill="none"/>
    </clipPath>
    <clipPath id="clip-path-10">
      <rect id="Rectangle_1797" data-name="Rectangle 1797" width="29.635" height="35.332" fill="none"/>
    </clipPath>
    <clipPath id="clip-path-11">
      <rect id="Rectangle_1798" data-name="Rectangle 1798" width="8.218" height="51.018" fill="none"/>
    </clipPath>
    <clipPath id="clip-path-12">
      <rect id="Rectangle_1799" data-name="Rectangle 1799" width="41.88" height="28.213" fill="none"/>
    </clipPath>
    <clipPath id="clip-path-13">
      <rect id="Rectangle_1800" data-name="Rectangle 1800" width="9.236" height="24.47" fill="none"/>
    </clipPath>
    <clipPath id="clip-path-15">
      <rect id="Rectangle_1803" data-name="Rectangle 1803" width="134.794" height="92.674" fill="none"/>
    </clipPath>
    <clipPath id="clip-path-16">
      <rect id="Rectangle_1804" data-name="Rectangle 1804" width="92.455" height="134.165" fill="none"/>
    </clipPath>
    <clipPath id="clip-path-17">
      <rect id="Rectangle_1805" data-name="Rectangle 1805" width="84.169" height="124.655" fill="none"/>
    </clipPath>
  </defs>
  <g id="Illustration" transform="translate(4229.094 23786.627)">
    <g id="Illustration-2" data-name="Illustration" clip-path="url(#clip-path)">
      <g id="_1st_illustration" data-name="1st illustration" transform="translate(0 5)">
        <g id="Group_2940" data-name="Group 2940" transform="translate(111.907 -51)">
          <g id="Group_2258" data-name="Group 2258" transform="translate(-4312 -23740.371)" clip-path="url(#clip-path-2)">
            <path id="Path_419" data-name="Path 419" d="M9.657,271.118A92.566,92.566,0,0,1,9.369,260.8a92.564,92.564,0,0,1,.288-10.322A92.564,92.564,0,0,1,9.945,260.8a92.565,92.565,0,0,1-.288,10.322" transform="translate(1.014 27.115)" fill="#f7d3b0"/>
            <path id="Path_420" data-name="Path 420" d="M21.343,259.815a98.89,98.89,0,0,1-10.67.288A98.916,98.916,0,0,1,0,259.815a98.936,98.936,0,0,1,10.672-.288,98.91,98.91,0,0,1,10.67.288" transform="translate(0 28.095)" fill="#f7d3b0"/>
            <path id="Path_421" data-name="Path 421" d="M381.139,366.854a92.564,92.564,0,0,1-.288-10.322,92.564,92.564,0,0,1,.288-10.322,92.574,92.574,0,0,1,.288,10.322,92.573,92.573,0,0,1-.288,10.322" transform="translate(41.229 37.478)" fill="#f7d3b0"/>
            <path id="Path_422" data-name="Path 422" d="M392.825,355.551a98.925,98.925,0,0,1-10.67.288,98.949,98.949,0,0,1-10.672-.288,98.9,98.9,0,0,1,10.672-.288,98.877,98.877,0,0,1,10.67.288" transform="translate(40.214 38.459)" fill="#f7d3b0"/>
            <path id="Path_423" data-name="Path 423" d="M324.631,47.213a92.568,92.568,0,0,1-.288-10.322,92.568,92.568,0,0,1,.288-10.322,92.549,92.549,0,0,1,.288,10.322,92.549,92.549,0,0,1-.288,10.322" transform="translate(35.111 2.876)" fill="#f7d3b0"/>
            <path id="Path_424" data-name="Path 424" d="M336.317,35.91a98.9,98.9,0,0,1-10.67.288,98.926,98.926,0,0,1-10.673-.288,98.929,98.929,0,0,1,10.673-.288,98.9,98.9,0,0,1,10.67.288" transform="translate(34.097 3.856)" fill="#f7d3b0"/>
            <path id="Path_429" data-name="Path 429" d="M158.889,370.027a3.154,3.154,0,1,1-3.154-3.154,3.154,3.154,0,0,1,3.154,3.154" transform="translate(16.517 39.715)" fill="#f7d3b0"/>
            <path id="Path_432" data-name="Path 432" d="M285.74,192.992a3.154,3.154,0,1,1-3.154-3.154,3.154,3.154,0,0,1,3.154,3.154" transform="translate(30.25 20.551)" fill="#f7d3b0"/>
            <path id="Path_434" data-name="Path 434" d="M91.285,148.022c-7.38-10.7-20.178-29.942-31.252-46.4S38.928,70.274,31.6,59.537c-3.662-5.356-6.628-9.695-8.689-12.707l-2.359-3.458c-.26-.388-.461-.688-.606-.9s-.2-.316-.2-.316.082.1.227.294.362.505.635.883l2.417,3.419c2.1,2.97,5.1,7.29,8.785,12.642,7.38,10.7,17.451,25.569,28.52,42.025s23.837,35.722,31.162,46.46" transform="translate(2.138 4.563)" fill="#f7d3b0"/>
            <path id="Path_435" data-name="Path 435" d="M26.955,75.252a3.825,3.825,0,0,1,.841.131c.536.1,1.308.279,2.259.5,1.9.452,4.511,1.145,7.378,1.96l7.329,2.117,2.224.627a3.7,3.7,0,0,1,.808.263,3.8,3.8,0,0,1-.841-.125c-.538-.106-1.309-.28-2.258-.515-1.9-.472-4.5-1.2-7.362-2.015l-7.342-2.062-2.228-.615a3.864,3.864,0,0,1-.808-.269" transform="translate(2.918 8.146)" fill="#f7d3b0"/>
            <path id="Path_436" data-name="Path 436" d="M46.4,81.914c-.1-.023,1.093-5.466,2.659-12.156s2.917-12.1,3.016-12.074-1.093,5.466-2.66,12.158S46.5,81.937,46.4,81.914" transform="translate(5.022 6.244)" fill="#f7d3b0"/>
            <path id="Path_437" data-name="Path 437" d="M60.712,104.96a4.034,4.034,0,0,1,.389-.777l1.159-2.056c.976-1.737,2.314-4.142,3.693-6.848s2.553-5.2,3.385-7.006l.987-2.144a3.981,3.981,0,0,1,.4-.77,3.958,3.958,0,0,1-.27.826c-.2.523-.493,1.273-.881,2.193-.772,1.84-1.907,4.355-3.3,7.068s-2.76,5.106-3.795,6.812c-.521.851-.95,1.535-1.26,2a3.989,3.989,0,0,1-.511.7" transform="translate(6.572 9.24)" fill="#f7d3b0"/>
            <path id="Path_438" data-name="Path 438" d="M42.27,103.063a3.346,3.346,0,0,1,.8-.081l2.181-.084c1.841-.055,4.385-.106,7.2-.14s5.356-.044,7.2-.033l2.182.032a3.364,3.364,0,0,1,.8.062,3.482,3.482,0,0,1-.8.08l-2.181.084c-1.841.055-4.385.106-7.2.141s-5.355.043-7.2.032l-2.181-.032a3.388,3.388,0,0,1-.8-.061" transform="translate(4.576 11.12)" fill="#f7d3b0"/>
            <path id="Path_439" data-name="Path 439" d="M52.27,125.44a5.553,5.553,0,0,1,1.023-.093l2.8-.119c2.359-.083,5.62-.174,9.222-.252s6.863-.127,9.225-.145l2.8,0a5.409,5.409,0,0,1,1.026.049,5.544,5.544,0,0,1-1.023.093l-2.794.119c-2.359.083-5.621.174-9.223.252s-6.863.127-9.224.145l-2.8,0a5.527,5.527,0,0,1-1.026-.049" transform="translate(5.658 13.513)" fill="#f7d3b0"/>
            <path id="Path_440" data-name="Path 440" d="M75.243,127.189a6.265,6.265,0,0,1,.468-1l1.375-2.66c1.159-2.246,2.748-5.356,4.405-8.837s3.084-6.669,4.1-8.986l1.2-2.743a6.3,6.3,0,0,1,.479-.99,6.157,6.157,0,0,1-.348,1.044c-.246.664-.616,1.618-1.1,2.789-.953,2.344-2.34,5.556-4.005,9.042s-3.288,6.584-4.506,8.8c-.613,1.107-1.117,2-1.479,2.607a6.366,6.366,0,0,1-.592.928" transform="translate(8.145 11.039)" fill="#f7d3b0"/>
            <path id="Path_442" data-name="Path 442" d="M359.823,219.634a235.59,235.59,0,0,1,12.019-24.223l3.477-6.187c1.146-2.028,2.282-4.04,3.515-5.939a117.754,117.754,0,0,1,7.709-10.5c2.613-3.223,5.211-6.185,7.66-8.938s4.793-5.268,7.022-7.472A93.42,93.42,0,0,1,412.5,146.76c1.415-1.027,2.54-1.786,3.309-2.292l.878-.57a1.744,1.744,0,0,1,.308-.178,2.069,2.069,0,0,1-.281.221l-.85.608c-.75.532-1.856,1.317-3.254,2.365a98.744,98.744,0,0,0-11.149,9.7c-2.207,2.214-4.524,4.74-6.963,7.5s-5.017,5.731-7.615,8.952a119.047,119.047,0,0,0-7.656,10.481c-1.224,1.89-2.347,3.884-3.494,5.918s-2.3,4.1-3.473,6.186a241.4,241.4,0,0,0-12.03,24.158" transform="translate(38.952 15.558)" fill="#f7d3b0"/>
            <path id="Path_443" data-name="Path 443" d="M377.175,182.267a5.365,5.365,0,0,1-.135-1.143c-.06-.738-.11-1.806-.154-3.129-.089-2.644-.088-6.3-.07-10.328s-.033-7.675-.163-10.309c-.061-1.318-.121-2.384-.172-3.12a5.256,5.256,0,0,1-.023-1.151,5.278,5.278,0,0,1,.211,1.132c.109.732.221,1.8.325,3.116.218,2.639.323,6.3.306,10.332-.028,3.975-.052,7.573-.071,10.321,0,1.241,0,2.287,0,3.127a5.172,5.172,0,0,1-.053,1.15" transform="translate(40.751 16.572)" fill="#f7d3b0"/>
            <path id="Path_444" data-name="Path 444" d="M411.4,177.056a7.27,7.27,0,0,1-1.358.016c-.871-.016-2.131-.045-3.689-.033-3.114,0-7.418.152-12.158.526s-9.016.913-12.1,1.385c-1.544.225-2.787.441-3.647.585a7.231,7.231,0,0,1-1.347.181,7.294,7.294,0,0,1,1.31-.368c.851-.2,2.089-.469,3.629-.739,3.077-.562,7.36-1.147,12.115-1.533a119.387,119.387,0,0,1,12.2-.383c1.563.032,2.825.114,3.7.19a7.117,7.117,0,0,1,1.348.174" transform="translate(40.823 19.124)" fill="#f7d3b0"/>
            <path id="Path_445" data-name="Path 445" d="M361.458,216.073a1.728,1.728,0,0,1-.186-.434c-.12-.346-.267-.768-.444-1.279-.38-1.112-.889-2.734-1.491-4.748-1.207-4.026-2.7-9.64-4.261-15.856s-3-11.839-4.123-15.885c-.552-1.968-1.005-3.586-1.342-4.789-.143-.522-.262-.952-.358-1.306a1.716,1.716,0,0,1-.093-.464,1.8,1.8,0,0,1,.186.436l.443,1.277c.381,1.112.89,2.735,1.492,4.748,1.207,4.026,2.7,9.641,4.262,15.859s3,11.837,4.122,15.884c.552,1.966,1.005,3.585,1.342,4.787l.358,1.306a1.785,1.785,0,0,1,.093.465" transform="translate(37.797 18.545)" fill="#f7d3b0"/>
            <path id="Path_446" data-name="Path 446" d="M406.481,203.055a1.865,1.865,0,0,1-.463.135l-1.344.295-4.951,1.035c-4.18.874-9.94,2.149-16.3,3.565s-12.142,2.64-16.341,3.428c-2.1.395-3.8.7-4.983.882l-1.36.205a1.789,1.789,0,0,1-.481.038,1.86,1.86,0,0,1,.463-.135l1.344-.295,4.951-1.034c4.18-.874,9.941-2.149,16.3-3.566s12.139-2.64,16.339-3.428c2.1-.395,3.8-.7,4.983-.882l1.361-.205a1.777,1.777,0,0,1,.48-.038" transform="translate(38.999 21.981)" fill="#f7d3b0"/>
          </g>
          <path id="Path_448" data-name="Path 448" d="M180.018,64.047C138.927,67.032,94.072,72.471,61.18,85.1L71.567,155.39s63.756-22.815,115.625-21.231Z" transform="translate(-4305.377 -23733.438)" fill="#f2af6b"/>
          <g id="Group_2261" data-name="Group 2261" transform="translate(-4244.198 -23669.391)">
            <g id="Group_2260" data-name="Group 2260" clip-path="url(#clip-path-3)">
              <path id="Path_449" data-name="Path 449" d="M180.018,64.047C138.927,67.032,94.072,72.471,61.18,85.1L71.567,155.39s63.756-22.815,115.625-21.231Z" transform="translate(-61.179 -64.047)" fill="#fff" opacity="0.9"/>
            </g>
          </g>
          <path id="Path_450" data-name="Path 450" d="M176.065,122.45a2.129,2.129,0,0,1-.395.074l-1.167.161-4.483.56c-1.949.231-4.333.516-7.09.922s-5.909.789-9.369,1.364c-13.862,2.143-32.943,5.681-53.669,11.042-7.206,1.86-14.149,3.778-20.5,5.771l-.316.1-.044-.325c-2.221-16.12-4.371-30.015-6.02-39.869L71.024,90.712q-.347-1.978-.541-3.083c-.053-.329-.1-.592-.129-.8a1.182,1.182,0,0,1-.028-.274,1.189,1.189,0,0,1,.075.265c.045.2.1.462.176.788q.224,1.1.631,3.067c.534,2.679,1.273,6.591,2.143,11.511,1.746,9.842,3.969,23.733,6.224,39.853l-.36-.226c6.374-2.013,13.316-3.939,20.532-5.8A523.3,523.3,0,0,1,153.5,125.128c3.468-.55,6.623-.915,9.387-1.281s5.152-.628,7.106-.825l4.5-.453,1.17-.1a2.067,2.067,0,0,1,.4-.016" transform="translate(-4304.387 -23731.002)" fill="#f2af6b"/>
          <path id="Path_451" data-name="Path 451" d="M177.029,104.7c-.029.008-.155-.49-.473-1.4a14.876,14.876,0,0,0-2.115-3.634,18.478,18.478,0,0,0-4.988-4.369,19.532,19.532,0,0,0-1.775-.944,16.257,16.257,0,0,0-2.008-.726,11.041,11.041,0,0,0-4.57-.444,9.619,9.619,0,0,0-4.655,1.831,15.607,15.607,0,0,0-3.723,4.047c-2.161,3.2-3.567,7.1-5.223,11.148a13.981,13.981,0,0,1-3.866,5.542,7.343,7.343,0,0,1-3.207,1.536,6.425,6.425,0,0,1-3.611-.417c-4.68-1.855-6.763-7.246-11.49-8.885a9.261,9.261,0,0,0-7.017.574,8.852,8.852,0,0,0-2.779,2.146,14.134,14.134,0,0,0-1.853,2.977c-1.056,2.082-1.85,4.4-3.636,6.031a5.384,5.384,0,0,1-3.187,1.437,6.233,6.233,0,0,1-3.336-.717,11.953,11.953,0,0,1-4.589-4.51,38.829,38.829,0,0,1-2.428-5.535,26.346,26.346,0,0,0-2.4-5,10,10,0,0,0-3.675-3.41,9.512,9.512,0,0,0-8.426-.246,14.27,14.27,0,0,0-5.348,3.857,10.4,10.4,0,0,0-2.006,3.666c-.283.923-.323,1.437-.363,1.431a6.5,6.5,0,0,1,.253-1.463,10.08,10.08,0,0,1,1.944-3.777,14.333,14.333,0,0,1,5.394-4.01,9.841,9.841,0,0,1,8.742.181,10.408,10.408,0,0,1,3.857,3.523,26.733,26.733,0,0,1,2.479,5.076,39.024,39.024,0,0,0,2.417,5.447,11.482,11.482,0,0,0,4.394,4.3,5.709,5.709,0,0,0,3.048.652,4.835,4.835,0,0,0,2.867-1.308c1.639-1.49,2.439-3.754,3.5-5.87a14.624,14.624,0,0,1,1.929-3.1,9.388,9.388,0,0,1,2.953-2.286,9.819,9.819,0,0,1,7.457-.608c2.52.828,4.322,2.771,6,4.518a16.615,16.615,0,0,0,5.524,4.39,5.86,5.86,0,0,0,3.3.391,6.8,6.8,0,0,0,2.966-1.417,13.5,13.5,0,0,0,3.724-5.325c1.649-4,3.1-7.958,5.312-11.2a15.974,15.974,0,0,1,3.859-4.142,10.013,10.013,0,0,1,4.871-1.875,11.387,11.387,0,0,1,4.719.5,16.686,16.686,0,0,1,2.048.764,19.963,19.963,0,0,1,1.8.983,18.43,18.43,0,0,1,5,4.507,14.191,14.191,0,0,1,2.046,3.731,10.971,10.971,0,0,1,.291,1.069,1.76,1.76,0,0,1,.072.369" transform="translate(-4303.959 -23730.336)" fill="#f2a557"/>
          <path id="Path_452" data-name="Path 452" d="M68.988,95.212c.03.156-.505.39-1.195.521s-1.272.111-1.3-.045.5-.39,1.195-.521,1.272-.111,1.3.045" transform="translate(-4304.802 -23730.078)" fill="#f2af6b"/>
          <path id="Path_453" data-name="Path 453" d="M70.583,106.79c.068.144-.336.474-.9.737s-1.076.358-1.144.214.336-.474.9-.737,1.076-.358,1.144-.214" transform="translate(-4304.581 -23728.818)" fill="#f2af6b"/>
          <path id="Path_454" data-name="Path 454" d="M72.632,119.449c.052.151-.362.433-.926.63s-1.064.234-1.117.085.362-.433.927-.631,1.065-.234,1.117-.084" transform="translate(-4304.359 -23727.451)" fill="#f2af6b"/>
          <path id="Path_455" data-name="Path 455" d="M75.112,131.892c.048.152-.422.436-1.048.632s-1.174.234-1.221.081.421-.434,1.048-.632,1.174-.233,1.221-.081" transform="translate(-4304.115 -23726.104)" fill="#f2af6b"/>
          <path id="Path_456" data-name="Path 456" d="M144.809,72.367a5.6,5.6,0,0,1,1.342-.3c.882-.153,2.177-.346,3.822-.579,3.293-.462,7.987-1.072,13.587-1.761l.262-.033.024.264c.436,4.719.938,10.154,1.471,15.915l.022.239.024.278-.276.034-18.37,2.25-.246.03-.025-.243c-.515-4.818-.945-8.839-1.255-11.736q-.2-2.018-.314-3.239a7.537,7.537,0,0,1-.069-1.116,9.741,9.741,0,0,1,.2,1.182c.112.82.262,1.912.447,3.268.363,2.859.868,6.829,1.473,11.585l-.272-.214,18.358-2.34-.252.313-.022-.239c-.509-5.763-.99-11.2-1.406-15.92l.285.232-18.812,2.133" transform="translate(-4296.325 -23732.826)" fill="#f2af6b"/>
          <path id="Path_457" data-name="Path 457" d="M161.572,74.651c0,.171-3.162.17-7.019.585-3.86.4-6.947,1.06-6.986.893a24.8,24.8,0,0,1,6.925-1.467,24.793,24.793,0,0,1,7.08-.011" transform="translate(-4296.025 -23732.313)" fill="#f2af6b"/>
          <path id="Path_458" data-name="Path 458" d="M161.661,78.362c0,.167-2.943.28-6.551.634s-6.52.8-6.552.632a25.516,25.516,0,0,1,6.5-1.207,25.494,25.494,0,0,1,6.606-.059" transform="translate(-4295.918 -23731.906)" fill="#f2af6b"/>
          <path id="Path_459" data-name="Path 459" d="M157.149,81.6a12.76,12.76,0,0,1-3.738.765,12.789,12.789,0,0,1-3.811.192,12.847,12.847,0,0,1,3.738-.765,12.789,12.789,0,0,1,3.811-.192" transform="translate(-4295.805 -23731.547)" fill="#f2af6b"/>
          <path id="Path_460" data-name="Path 460" d="M361.5,84.9C321.27,72.64,287.331,62.17,241.758,62.46l-6.965,71.626c47.334,4.189,63.153,7.288,106.862,23.106Z" transform="translate(-4286.583 -23733.609)" fill="#f2af6b"/>
          <g id="Group_2264" data-name="Group 2264" transform="translate(-4051.79 -23671.158)">
            <g id="Group_2263" data-name="Group 2263" opacity="0.85" clip-path="url(#clip-path-4)">
              <path id="Path_461" data-name="Path 461" d="M361.5,84.9C321.27,72.64,287.331,62.17,241.758,62.46l-6.965,71.626c47.334,4.189,63.153,7.288,106.862,23.106Z" transform="translate(-234.793 -62.453)" fill="#fff" opacity="0.9"/>
            </g>
          </g>
          <path id="Path_462" data-name="Path 462" d="M268.728,95.315l1.775-15.2A17.818,17.818,0,0,0,258.1,83.55a18.682,18.682,0,0,0-7.625,15.027c-.014.731,0,1.48.063,2.248l0,.054h0l17.75-1.995Z" transform="translate(-4284.886 -23731.709)" fill="#e89c4f"/>
          <path id="Path_463" data-name="Path 463" d="M285.144,92.789A17.192,17.192,0,0,0,272.5,80.737c-.178-.041-.358-.081-.541-.117-.114-.023-.227-.05-.344-.071q-.509-.093-1.035-.16l-.046-.008h0c-.016,0-.029-.006-.043-.007v0l-1.776,15.2-.417,3.572,16.756,6.115.021.008a19.366,19.366,0,0,0,.868-3.89,20.854,20.854,0,0,0-.8-8.59" transform="translate(-4282.956 -23731.67)" fill="#f2af6b"/>
          <g id="Group_2268" data-name="Group 2268" transform="translate(-4014.661 -23651.297)" opacity="0.269">
            <g id="Group_2267" data-name="Group 2267">
              <g id="Group_2266" data-name="Group 2266" clip-path="url(#clip-path-5)">
                <path id="Path_464" data-name="Path 464" d="M285.144,92.789A17.192,17.192,0,0,0,272.5,80.737c-.178-.041-.358-.081-.541-.117-.114-.023-.227-.05-.344-.071q-.509-.093-1.035-.16l-.046-.008h0c-.016,0-.029-.006-.043-.007v0l-1.776,15.2-.417,3.572,16.756,6.115.021.008a19.366,19.366,0,0,0,.868-3.89,20.854,20.854,0,0,0-.8-8.59" transform="translate(-268.295 -80.374)"/>
              </g>
            </g>
          </g>
          <path id="Path_465" data-name="Path 465" d="M268.9,98.853l-17.75,1.995c.738,8.6,7.013,15.724,15.441,16.761,8.47,1.042,16.322-4.411,19.086-12.637l-16.756-6.115" transform="translate(-4284.812 -23729.67)" fill="#fad1a4"/>
          <path id="Path_466" data-name="Path 466" d="M339.106,96.173a9.4,9.4,0,0,1-1.567-.633c-.989-.449-2.428-1.075-4.217-1.824a126.316,126.316,0,0,0-29.057-8.289c-1.914-.309-3.468-.535-4.544-.677a9.944,9.944,0,0,1-1.666-.287,9.273,9.273,0,0,1,1.69.063c1.085.074,2.651.238,4.579.5a107.1,107.1,0,0,1,29.159,8.32c1.774.8,3.192,1.483,4.153,1.994a9.54,9.54,0,0,1,1.47.837" transform="translate(-4279.734 -23731.23)" fill="#f2af6b"/>
          <path id="Path_467" data-name="Path 467" d="M338.006,102.919a9.4,9.4,0,0,1-1.567-.633c-.989-.449-2.428-1.075-4.217-1.824a126.33,126.33,0,0,0-29.056-8.289c-1.915-.309-3.468-.535-4.545-.677a9.879,9.879,0,0,1-1.665-.287,9.527,9.527,0,0,1,1.689.063c1.086.074,2.651.238,4.579.5a107.094,107.094,0,0,1,29.159,8.32c1.775.8,3.192,1.483,4.154,1.994a9.562,9.562,0,0,1,1.468.837" transform="translate(-4279.854 -23730.5)" fill="#f2af6b"/>
          <path id="Path_468" data-name="Path 468" d="M336.907,109.666a9.485,9.485,0,0,1-1.567-.634c-.989-.448-2.428-1.075-4.217-1.823a126.395,126.395,0,0,0-29.057-8.29c-1.914-.308-3.468-.535-4.544-.676a9.712,9.712,0,0,1-1.666-.288,9.356,9.356,0,0,1,1.69.064c1.085.073,2.651.238,4.579.5a107.044,107.044,0,0,1,29.159,8.319c1.774.8,3.192,1.484,4.153,1.995a9.54,9.54,0,0,1,1.469.837" transform="translate(-4279.973 -23729.77)" fill="#f2af6b"/>
          <path id="Path_469" data-name="Path 469" d="M334.589,116.412a9.018,9.018,0,0,1-1.518-.632c-.956-.447-2.351-1.073-4.083-1.82a119.849,119.849,0,0,0-28.194-8.293c-1.861-.31-3.371-.536-4.418-.678a9.039,9.039,0,0,1-1.619-.288,8.93,8.93,0,0,1,1.644.065c1.056.073,2.579.238,4.454.5a101.571,101.571,0,0,1,28.3,8.324c1.717.8,3.089,1.481,4.016,1.99a9,9,0,0,1,1.419.833" transform="translate(-4280.091 -23729.039)" fill="#f2af6b"/>
          <path id="Path_470" data-name="Path 470" d="M329.41,121.647a7.281,7.281,0,0,1-1.371-.545l-3.663-1.629a89.482,89.482,0,0,0-25.3-7.217l-3.971-.549a7.2,7.2,0,0,1-1.452-.26,7.23,7.23,0,0,1,1.475.037c.947.055,2.314.182,4,.368a76.748,76.748,0,0,1,25.412,7.25c1.532.731,2.759,1.345,3.593,1.8a7.184,7.184,0,0,1,1.272.747" transform="translate(-4280.21 -23728.309)" fill="#f2af6b"/>
          <path id="Path_471" data-name="Path 471" d="M311.7,121.759a17.75,17.75,0,0,1-2.863-.593c-1.753-.408-4.183-.932-6.888-1.4s-5.171-.806-6.955-1.059a15.84,15.84,0,0,1-2.883-.5,13.8,13.8,0,0,1,2.928.094c1.8.151,4.287.422,7.009.9a62.636,62.636,0,0,1,6.892,1.57,12.617,12.617,0,0,1,2.76.987" transform="translate(-4280.377 -23727.578)" fill="#f2af6b"/>
          <path id="Path_472" data-name="Path 472" d="M248.024,70.132s.3-.024.924-.048l2.77-.092c2.447-.06,5.982-.021,10.507.235a167.242,167.242,0,0,1,36.906,6.606l.2.061-.038.215c-2.772,15.875-6.069,34.749-9.6,54.945-.143.818-.287,1.634-.427,2.435l-.054.309-.3-.08a243.2,243.2,0,0,0-24.642-5.084c-7.938-1.218-15.531-2.081-22.584-2.529l-.272-.017.031-.266c1.939-16.942,3.565-31.135,4.708-41.121.581-4.939,1.037-8.837,1.353-11.527.16-1.3.283-2.315.369-3.026.043-.324.076-.575.1-.768a1.513,1.513,0,0,1,.043-.25,2.222,2.222,0,0,1-.015.28c-.019.2-.042.462-.073.8-.073.723-.177,1.751-.311,3.078-.286,2.705-.7,6.625-1.225,11.593-1.079,9.955-2.613,24.108-4.445,41l-.239-.283c7.086.429,14.683,1.278,22.644,2.487a240.44,240.44,0,0,1,24.705,5.077l-.358.228c.141-.8.284-1.617.427-2.435,3.557-20.19,6.882-39.059,9.678-54.93l.166.276a171.134,171.134,0,0,0-36.771-6.787c-4.5-.3-8.069-.38-10.461-.373l-2.753.006c-.628,0-.969-.014-.969-.014" transform="translate(-4285.866 -23732.797)" fill="#f2af6b"/>
          <rect id="Rectangle_1792" data-name="Rectangle 1792" width="459.418" height="518.745" transform="translate(-4312 -23740.371)" fill="none"/>
          <path id="Path_473" data-name="Path 473" d="M207.879,203.815,247.11,212.5l6-8.687-.969-11.187-5.961-5.446H225.624l-19.188,17.28" transform="translate(-4455.652 -23736.107)" fill="#f2af6b"/>
          <g id="Group_2273" data-name="Group 2273" transform="translate(-4083.218 -23532.926)" opacity="0.3">
            <g id="Group_2272" data-name="Group 2272">
              <g id="Group_2271" data-name="Group 2271" clip-path="url(#clip-path-6)">
                <path id="Path_474" data-name="Path 474" d="M207.879,203.815,247.11,212.5l6-8.687-.969-11.187-5.961-5.446H225.624l-19.188,17.28" transform="translate(-206.435 -187.182)"/>
              </g>
            </g>
          </g>
          <path id="Path_475" data-name="Path 475" d="M262.736,130.619l49.52-6.668,7.794-2.2s17.85-3.921,19.516-4.516c1.926-.687,2.721.075,2.926.8.319,1.134-.766,2.4-2.4,3.043-.565.222-9.62,3.358-9.62,3.358a22.634,22.634,0,0,1,3.059.882c2.164.736,4.243,3.528,5.284,6.781s1.044,4.258-.2,4.721a1.69,1.69,0,0,1-1.438-.2,3.343,3.343,0,0,1-1.486-1.862c-1.738-5.189-4.985-5.6-4.985-5.6l-1.02.287s3.35,2.34,3.293,5.169a3.219,3.219,0,0,1-.26,1.214,4.281,4.281,0,0,1-4.774,5.633c-.713-.123-1.484-.545-1.587-1.261a2.282,2.282,0,0,1,.229-1.108,3.429,3.429,0,0,0,.177-.58l-2.97.406s-6.719.555-9.616,1.127L267.8,154.018a12.009,12.009,0,1,1-5.066-23.4" transform="translate(-4284.685 -23727.709)" fill="#ffbea1"/>
          <path id="Path_476" data-name="Path 476" d="M307.438,124.664a2.494,2.494,0,0,0,2.135,1.975c1.018.214,2.08.075,3.112.214,3.084.417,5.484,3.223,8.586,3.49.432.038.977-.052,1.106-.467.119-.385-.213-.748-.514-1.014l-7.727-6.829" transform="translate(-4278.719 -23727.16)" fill="#ffbea1"/>
          <path id="Path_477" data-name="Path 477" d="M314.136,122.032a4.167,4.167,0,0,1,.911.653c.562.449,1.361,1.114,2.341,1.944l3.421,2.939.983.857c.291.295.8.551.9,1.259a.869.869,0,0,1-.53.819,1.791,1.791,0,0,1-.833.137,6.8,6.8,0,0,1-1.491-.3,39.554,39.554,0,0,1-4.955-2.512,7.744,7.744,0,0,0-2.205-.733c-.717-.109-1.421-.086-2.072-.133a3.63,3.63,0,0,1-2.822-1.219c-.459-.627-.361-1.1-.341-1.084a3.015,3.015,0,0,0,.516.936,3.516,3.516,0,0,0,2.665.951,21.192,21.192,0,0,1,2.12.065,8.011,8.011,0,0,1,2.369.725c1.578.709,3.1,1.863,4.9,2.441a6.343,6.343,0,0,0,1.347.273c.427.03.795-.124.756-.351,0-.255-.358-.569-.691-.859s-.654-.586-.971-.87l-3.337-3.034c-.944-.87-1.7-1.582-2.217-2.084a4.111,4.111,0,0,1-.76-.825" transform="translate(-4278.721 -23727.16)" fill="#eab071"/>
          <path id="Path_478" data-name="Path 478" d="M322.047,128.173a4.246,4.246,0,0,1,1.948-.026,3.282,3.282,0,0,1,1.7,1.165,8.42,8.42,0,0,1,1.219,2.314,13.306,13.306,0,0,0,1.128,2.469,4.318,4.318,0,0,0,1.62,1.559,1.685,1.685,0,0,0,1.515.034c.322-.172.444-.336.434-.346-.021-.03-.177.092-.492.209a1.591,1.591,0,0,1-1.335-.137,4.28,4.28,0,0,1-1.446-1.506,14.806,14.806,0,0,1-1.071-2.42,8.17,8.17,0,0,0-1.3-2.4,3.439,3.439,0,0,0-1.9-1.2,3.057,3.057,0,0,0-1.513.047c-.344.105-.508.219-.5.239" transform="translate(-4277.137 -23726.535)" fill="#eab071"/>
          <path id="Path_479" data-name="Path 479" d="M333.278,120.448a10.671,10.671,0,0,0-1.8.612l-4.3,1.581-4.328,1.518a10.865,10.865,0,0,0-1.781.675,8.554,8.554,0,0,0,1.862-.419c1.134-.318,2.684-.81,4.375-1.416s3.2-1.215,4.276-1.691a8.435,8.435,0,0,0,1.7-.86" transform="translate(-4277.244 -23727.332)" fill="#eab071"/>
          <path id="Path_480" data-name="Path 480" d="M321.108,130.629c-.02.021.134.173.39.452a1.768,1.768,0,0,1,.56,1.363.95.95,0,0,1-.584.734,5.087,5.087,0,0,1-1.2.33,2.136,2.136,0,0,0-1.338.716,1.822,1.822,0,0,0-.225,1.629,2.067,2.067,0,0,0,1.114,1.195,2.582,2.582,0,0,0,1.493.221,8.35,8.35,0,0,0,2.3-.857,4.967,4.967,0,0,0,1.323-.986,1.108,1.108,0,0,0,.308-.523c-.03-.017-.139.166-.413.419a5.851,5.851,0,0,1-1.341.852,8.985,8.985,0,0,1-2.229.749,2.042,2.042,0,0,1-2.191-1.189,1.464,1.464,0,0,1,.164-1.289,1.825,1.825,0,0,1,1.116-.6,5.029,5.029,0,0,0,1.266-.392,1.227,1.227,0,0,0,.7-.982,1.847,1.847,0,0,0-.721-1.5c-.3-.255-.479-.365-.494-.347" transform="translate(-4277.508 -23726.23)" fill="#eab071"/>
          <path id="Path_481" data-name="Path 481" d="M320.012,136.418c0-.018-.213,0-.492.232a1.655,1.655,0,0,0-.554,1.376,2.209,2.209,0,0,0,1.313,1.759,3.614,3.614,0,0,0,2.689.039A4.373,4.373,0,0,0,325.1,138.2a4.169,4.169,0,0,0,.719-2.07,3.949,3.949,0,0,0-.16-1.46c-.106-.33-.208-.494-.229-.487a6.9,6.9,0,0,1,.123,1.92,4.127,4.127,0,0,1-.738,1.9,4.178,4.178,0,0,1-1.977,1.472,3.361,3.361,0,0,1-2.417,0,1.96,1.96,0,0,1-1.19-1.47,1.573,1.573,0,0,1,.389-1.241c.221-.239.4-.308.39-.338" transform="translate(-4277.471 -23725.846)" fill="#eab071"/>
          <path id="Path_482" data-name="Path 482" d="M312.731,133.1c.033-.009-.017-.357-.318-.858a3.6,3.6,0,0,0-1.805-1.475l.02.335a10.626,10.626,0,0,0,1.132-.627,8.184,8.184,0,0,0,3.106-3.2,20.731,20.731,0,0,1-3.31,2.879c-.369.236-.739.443-1.087.621l-.386.2.4.139a3.768,3.768,0,0,1,1.738,1.262c.335.433.46.746.506.728" transform="translate(-4278.433 -23726.594)" fill="#eab071"/>
          <path id="Path_483" data-name="Path 483" d="M326.452,127.754c-.072-.07-.6.509-.653,1.422s.375,1.557.456,1.5c.1-.048-.139-.677-.078-1.472.045-.795.367-1.386.275-1.447" transform="translate(-4276.731 -23726.541)" fill="#eab071"/>
          <path id="Path_484" data-name="Path 484" d="M121.356,145.023s-7.234-11.723-8.514-12.717-12.732-5.187-13.709-4.878-14.855,2.679-13.261,4.326,11.27-.141,11.27-.141l1.3.649s-8.36,1.332-10.119,2.349c-1.62.936-1.065,2.919.467,2.761s8.794-1.564,9.226-1.266-7.9,1.959-8.8,2.489c-1.207.714-1.328,2.859.2,2.754.9-.062,8.757-2.09,8.757-2.09s-6.232,2.4-6.806,2.946c-.941.893-.2,2.25,1.155,1.952.927-.2,5.328-2.3,6.571-2.573,0,0,1.159.31,2.212,2.656.491,1.1,2.727,7.926,6.818,7.836,3.623-.079,7.18,2.908,7.18,2.908Z" transform="translate(-4302.718 -23726.578)" fill="#ffbea1"/>
          <path id="Path_485" data-name="Path 485" d="M85.883,131.423a6.4,6.4,0,0,0,2.529.7,14.965,14.965,0,0,0,2.859.119c1.061-.117,2.219-.282,3.438-.45l2.589-.378-.156-.014a37.544,37.544,0,0,0,5.983,1.877,37.074,37.074,0,0,0-5.772-2.464l-.069-.027-.089.012-2.568.346-3.4.5a18.384,18.384,0,0,1-2.771.022c-1.58-.11-2.55-.338-2.576-.24" transform="translate(-4302.703 -23726.213)" fill="#eab071"/>
          <path id="Path_486" data-name="Path 486" d="M114.561,142.778a2.766,2.766,0,0,1-3.224,0c-.99-.6-1.748-1.508-2.691-2.173-2.822-1.987-6.888-1.516-9.611-3.636-.38-.3-.755-.78-.547-1.214.194-.4.738-.448,1.184-.438l11.429.276" transform="translate(-4301.345 -23725.723)" fill="#ffbea1"/>
          <path id="Path_487" data-name="Path 487" d="M111.132,135.62a4.6,4.6,0,0,0-1.233-.156c-.795-.059-1.945-.121-3.368-.185l-5-.191-1.444-.045a2.27,2.27,0,0,0-1.679.349.964.964,0,0,0-.186,1.065,1.994,1.994,0,0,0,.574.739,7.522,7.522,0,0,0,1.434.884c2.061.953,4.169,1.127,5.923,1.692a8.586,8.586,0,0,1,2.345,1.068c.665.451,1.22,1,1.785,1.454a4.023,4.023,0,0,0,3.213,1.137c.846-.163,1.122-.622,1.094-.624a3.345,3.345,0,0,1-1.126.372,3.9,3.9,0,0,1-2.884-1.237c-.526-.459-1.065-1.033-1.772-1.546a8.871,8.871,0,0,0-2.474-1.2c-1.818-.614-3.921-.82-5.823-1.71a6.888,6.888,0,0,1-1.3-.794c-.37-.3-.552-.7-.349-.857.2-.2.72-.192,1.209-.175l1.445.023,5,.051c1.424,0,2.577,0,3.374-.022a4.55,4.55,0,0,0,1.239-.1" transform="translate(-4301.376 -23725.754)" fill="#eab071"/>
          <path id="Path_488" data-name="Path 488" d="M169.84,377.529,167.2,406.6l-8.721,22.392a2.991,2.991,0,0,0,4.592,3.471c4.911-3.74,22.905-17.59,22.98-19.728.085-2.477,4.823-30.482,4.823-30.482Z" transform="translate(-4294.866 -23699.502)" fill="#ffceb9"/>
          <g id="Group_2276" data-name="Group 2276" transform="translate(-4134.496 -23288.723)" opacity="0.6">
            <g id="Group_2275" data-name="Group 2275">
              <g id="Group_2274" data-name="Group 2274" clip-path="url(#clip-path-7)">
                <path id="Path_489" data-name="Path 489" d="M160.166,429.686l25.9-22.155-.14,1.229a4.5,4.5,0,0,1-1.392,2.78c-2.088,1.954-7.973,7.225-21.582,17.689a2.991,2.991,0,0,1-2.786.458" transform="translate(-160.166 -407.531)" fill="#fff"/>
              </g>
            </g>
          </g>
          <g id="Group_2279" data-name="Group 2279" transform="translate(-4114.396 -23298.953)" opacity="0.6">
            <g id="Group_2278" data-name="Group 2278">
              <g id="Group_2277" data-name="Group 2277" clip-path="url(#clip-path-8)">
                <path id="Path_490" data-name="Path 490" d="M179.217,398.5a1.81,1.81,0,0,0-.76,2.292,1.74,1.74,0,0,0,2.265.774,1.908,1.908,0,0,0,.792-2.431,1.8,1.8,0,0,0-2.446-.543" transform="translate(-178.302 -398.3)" fill="#fff"/>
              </g>
            </g>
          </g>
          <path id="Path_491" data-name="Path 491" d="M167.994,417.144c-.173.061-.654-1.533-2.286-2.546-1.6-1.063-3.251-.837-3.266-1.02-.018-.074.376-.258,1.065-.276a4.767,4.767,0,0,1,4.294,2.757c.27.635.267,1.068.193,1.084" transform="translate(-4294.415 -23695.629)" fill="#263238"/>
          <path id="Path_492" data-name="Path 492" d="M165.7,420.307c-.152.11-.975-.94-2.427-1.539-1.437-.634-2.764-.5-2.791-.688-.066-.158,1.4-.614,3.042.1,1.651.694,2.335,2.068,2.175,2.129" transform="translate(-4294.627 -23695.145)" fill="#263238"/>
          <path id="Path_493" data-name="Path 493" d="M172.193,413.085c-.152.122-1.41-1.5-3.585-2.63-2.158-1.166-4.2-1.3-4.188-1.493-.029-.161,2.171-.318,4.488.926,2.33,1.22,3.435,3.131,3.285,3.2" transform="translate(-4294.201 -23696.111)" fill="#263238"/>
          <path id="Path_494" data-name="Path 494" d="M173.561,404.928c-.1.165-1.624-.687-3.7-1-2.072-.341-3.787,0-3.829-.188-.063-.151,1.7-.807,3.929-.446,2.23.342,3.707,1.509,3.6,1.634" transform="translate(-4294.026 -23696.725)" fill="#263238"/>
          <path id="Path_495" data-name="Path 495" d="M174.48,397.252c-.109.157-1.61-.993-3.823-1.144-2.211-.2-3.873.7-3.956.528-.04-.065.318-.393,1.031-.7a6.522,6.522,0,0,1,5.843.462c.655.419.958.8.907.858" transform="translate(-4293.955 -23697.563)" fill="#263238"/>
          <path id="Path_496" data-name="Path 496" d="M170.892,395.113a2.537,2.537,0,0,1,.085-1.1,7.669,7.669,0,0,1,1.2-2.774,3.4,3.4,0,0,1,1.632-1.449,1.2,1.2,0,0,1,1.317.419,1.957,1.957,0,0,1,.309,1.362,4.226,4.226,0,0,1-4.125,3.467,4.9,4.9,0,0,1-4.5-3.094,1.7,1.7,0,0,1,.081-1.415,1.179,1.179,0,0,1,1.3-.48,4.171,4.171,0,0,1,1.8,1.211,8.561,8.561,0,0,1,1.722,2.478,2.6,2.6,0,0,1,.331,1.054,13.643,13.643,0,0,0-2.368-3.206,3.919,3.919,0,0,0-1.593-1.017.628.628,0,0,0-.708.258,1.168,1.168,0,0,0,0,.933,4.379,4.379,0,0,0,3.929,2.638,3.669,3.669,0,0,0,3.543-2.893,1.415,1.415,0,0,0-.175-.96.649.649,0,0,0-.723-.242,3.077,3.077,0,0,0-1.406,1.2,11.346,11.346,0,0,0-1.652,3.611" transform="translate(-4293.954 -23698.182)" fill="#263238"/>
          <path id="Path_497" data-name="Path 497" d="M195.892,413.657l21.756-172.281-6.957-40.049L169.66,203.5l-5.108,206.973a3.161,3.161,0,0,0,2.555,3.186l23.9,3.684a4.274,4.274,0,0,0,4.891-3.688" transform="translate(-4294.187 -23718.576)" fill="#263238"/>
          <path id="Path_498" data-name="Path 498" d="M213.6,248.007l39.57,39.162L196.23,301.016l4.053,28.726,77.066-10.488a24.252,24.252,0,0,0,16.773-37.685l-60.035-88.131-26.825,8.743Z" transform="translate(-4290.757 -23719.432)" fill="#263238"/>
          <path id="Path_499" data-name="Path 499" d="M209.931,233.684a22.777,22.777,0,0,1,1.375,4.922,22.793,22.793,0,0,1,.81,5.047,22.91,22.91,0,0,1-1.374-4.923,22.829,22.829,0,0,1-.811-5.046" transform="translate(-4289.278 -23715.074)" fill="#455a64"/>
          <path id="Path_500" data-name="Path 500" d="M206.36,300.325s.316-.117.94-.315l2.772-.86,10.618-3.229c9.22-2.772,22.462-6.756,38.638-11.621l-.1.368c-13.393-14.264-29.661-31.587-47.5-50.585l.49-.161c-.941,7.947-1.923,16.248-2.925,24.714-4.9,41.034-9.5,78.158-13.064,105-1.768,13.423-3.327,24.269-4.465,31.754-.633,3.734-1.051,6.644-1.482,8.595q-.311,1.441-.478,2.218c-.11.5-.181.749-.181.749s.032-.26.124-.764c.1-.521.237-1.261.42-2.226.393-1.95.775-4.87,1.374-8.6,1.07-7.494,2.566-18.345,4.281-31.774,3.46-26.853,8-63.984,12.9-105.017,1-8.465,1.989-16.765,2.932-24.712l.072-.608.419.447,47.411,50.668.248.265-.348.1-38.694,11.433-10.653,3.113-2.789.8c-.631.177-.96.252-.96.252" transform="translate(-4291.473 -23715.121)" fill="#455a64"/>
          <path id="Path_501" data-name="Path 501" d="M193.168,405.931c-.158-.02,4.361-36.586,10.093-81.661,5.733-45.09,10.508-81.615,10.666-81.6s-4.36,36.578-10.093,81.668c-5.732,45.075-10.507,81.607-10.666,81.587" transform="translate(-4291.089 -23714.102)" fill="#455a64"/>
          <path id="Path_502" data-name="Path 502" d="M206.1,217.234a12.825,12.825,0,0,1,.918,2.671c.484,1.672,1.087,4,1.654,6.6s.989,4.968,1.244,6.692a12.848,12.848,0,0,1,.278,2.809,14.584,14.584,0,0,1-.679-2.737c-.4-1.9-.88-4.153-1.406-6.641-.556-2.48-1.059-4.726-1.485-6.622a14.623,14.623,0,0,1-.522-2.772" transform="translate(-4289.69 -23716.855)" fill="#455a64"/>
          <path id="Path_503" data-name="Path 503" d="M208.489,214.218c-.062-.033.555-.54,1.607-.173a1.869,1.869,0,0,1,1.2,1.418,2.055,2.055,0,0,1-.9,2.1,2,2,0,0,1-2.274-.225,1.749,1.749,0,0,1,.227-2.778c.258-.144.427-.141.436-.11.053.074-.6.308-.78,1.195a1.284,1.284,0,0,0,.457,1.284,1.505,1.505,0,0,0,1.636.14,1.569,1.569,0,0,0,.672-1.518,1.489,1.489,0,0,0-.84-1.129,3.073,3.073,0,0,0-1.443-.2" transform="translate(-4289.534 -23717.215)" fill="#455a64"/>
          <path id="Path_504" data-name="Path 504" d="M259.251,284.724c-.12.131-2.347-1.921-5.553-3.768-3.193-1.871-6.079-2.788-6.024-2.958a21.955,21.955,0,0,1,11.578,6.726" transform="translate(-4285.188 -23710.279)" fill="#455a64"/>
          <path id="Path_505" data-name="Path 505" d="M183.166,96.088l-22.719,10.967,9.793,68.354-3.847,30.681a11.989,11.989,0,0,0,4.005,10.517l36.692-.724,25.695-14.127,11.8-1.994-4.832-23.352,2.164-33.129,26.856,14.339a9.355,9.355,0,0,0,6.749.8l49.236-12.733-2.559-18.97-44.573,5.039-33.945-29.994-25.264-5.68-4.506-7.443H188.063L186.255,90a5.412,5.412,0,0,0-1.868,2.561Z" transform="translate(-4294.631 -23730.775)" fill="#d89a5b"/>
          <path id="Path_506" data-name="Path 506" d="M166.247,105.257a27.248,27.248,0,0,0-10.23,13.344c-2.6,8.064-8.456,40.68-8.456,40.68l-25.812-16.018L106.872,158.9l34.411,30.345a17.492,17.492,0,0,0,28.9-10.753l4.224-30.927Z" transform="translate(-4300.431 -23728.977)" fill="#d89a5b"/>
          <path id="Path_507" data-name="Path 507" d="M232.51,193.668l-1.6-2.352-16.988,3.14-3.127,7.238Z" transform="translate(-4289.181 -23719.66)" fill="#ffbea1"/>
          <path id="Path_508" data-name="Path 508" d="M169.426,209.245c15.179,6.109,31.389,3.862,45.847-3.8,4.364-2.312,8.412-5.191,12.795-7.469s9.247-3.964,14.175-3.619,9.9,3.067,11.869,7.595,0,10.7-4.638,12.386l1.642,1.467c6.816-3.172,10.047-12.35,6.723-19.093-2.551-5.172-7.91-8.254-11.836-12.477-5.774-6.21-6.376-18.226-6.412-27.579" transform="translate(-4293.659 -23723.412)" fill="#d89a5b"/>
          <path id="Path_509" data-name="Path 509" d="M201.482,108.575a5.321,5.321,0,0,1-1.118.064,4.248,4.248,0,0,0-2.691,1.238,6.3,6.3,0,0,0-1.341,4.334,14.414,14.414,0,0,0,1.231,5.813l.428.954-.837-.621a45.024,45.024,0,0,1-5.724-5.061,42.171,42.171,0,0,1-8.8-13.474,30.03,30.03,0,0,1-1.427-4.684,10.659,10.659,0,0,1-.256-1.778,51.607,51.607,0,0,0,2.061,6.308,44.44,44.44,0,0,0,8.839,13.228,46.923,46.923,0,0,0,5.632,5.025l-.409.334a13.25,13.25,0,0,1-.946-3.108,13.637,13.637,0,0,1-.254-2.942,6.551,6.551,0,0,1,1.56-4.562,4.284,4.284,0,0,1,2.921-1.185,5.25,5.25,0,0,1,1.129.115" transform="translate(-4292.413 -23730.049)" fill="#263238"/>
          <path id="Path_510" data-name="Path 510" d="M200.7,109.033c1.87-.806,4.639.385,5.982,1.915.888,1.011,1.386,2.415,2.556,3.079s4.864,1.179,5.939.359c0,0,.656-3.156,1-4.464a99.141,99.141,0,0,0,2.526-15.163c-3.577-1.73-2.591-4.013-9.021-3.576,0,0,1.611,4.747.224,9.067" transform="translate(-4290.273 -23730.506)" fill="#d89a5b"/>
          <path id="Path_511" data-name="Path 511" d="M209.911,100.27c-.06-.017.234-.857.373-2.43a17.929,17.929,0,0,0-.8-6.568l-.083-.266.27-.016a11.094,11.094,0,0,1,4.744.428A7.246,7.246,0,0,1,216.607,93a8.856,8.856,0,0,0,2.22,1.537l.174.081-.02.2c-.286,2.692-.614,5.63-1.123,8.662-.334,1.982-.733,3.9-1.2,5.735s-.828,3.587-1.221,5.254l-.025.11-.073.047a3.536,3.536,0,0,1-1.9.462,11.685,11.685,0,0,1-3.438-.475,3.531,3.531,0,0,1-1.456-.793,15.205,15.205,0,0,1-1.708-2.343,5.992,5.992,0,0,0-1.745-1.587,6.211,6.211,0,0,0-3.19-1,6.96,6.96,0,0,0-1.2.17,2.449,2.449,0,0,1,1.195-.338,6.071,6.071,0,0,1,3.36.891,6.185,6.185,0,0,1,1.89,1.632,15.888,15.888,0,0,0,1.7,2.244,5.44,5.44,0,0,0,2.885,1,10.612,10.612,0,0,0,1.7.091,3.159,3.159,0,0,0,1.594-.372l-.1.156c.378-1.675.737-3.464,1.191-5.284s.843-3.725,1.176-5.693c.505-3.012.842-5.939,1.146-8.626l.153.276a9.261,9.261,0,0,1-2.336-1.642,6.833,6.833,0,0,0-2.029-1.507,10.885,10.885,0,0,0-4.522-.461l.187-.282a17.132,17.132,0,0,1,.632,6.729,11.172,11.172,0,0,1-.379,1.805,2.529,2.529,0,0,1-.23.6" transform="translate(-4290.273 -23730.527)" fill="#263238"/>
          <path id="Path_512" data-name="Path 512" d="M247.907,202.989c-.044,0,.051-.442-.01-1.272A7.737,7.737,0,0,0,246.8,198.3a11.373,11.373,0,0,0-4.075-3.937,17.2,17.2,0,0,0-7.267-1.995c-2.818-.258-5.938-.105-9.3-.332a34.819,34.819,0,0,1-10.484-2.222,21.616,21.616,0,0,1-9.457-7.062,16.466,16.466,0,0,1-2.719-5.7,21.851,21.851,0,0,1-.622-6.458c.172-4.389,1.181-8.542,1.788-12.574a94.611,94.611,0,0,0,1.107-11.71,97.225,97.225,0,0,0-1.458-19.85,98.3,98.3,0,0,0-3.269-13.037c-.474-1.517-.9-2.675-1.18-3.464-.129-.371-.229-.668-.31-.9a1.268,1.268,0,0,1-.085-.315,1.428,1.428,0,0,1,.142.294c.093.228.213.519.362.881.314.778.777,1.925,1.286,3.434a91.213,91.213,0,0,1,3.458,13.036,95.382,95.382,0,0,1,1.588,19.939,93.727,93.727,0,0,1-1.081,11.782c-.606,4.058-1.6,8.2-1.77,12.508a17.966,17.966,0,0,0,3.219,11.8,21.137,21.137,0,0,0,9.2,6.9,34.544,34.544,0,0,0,10.32,2.24c3.317.246,6.447.116,9.3.4a17.4,17.4,0,0,1,7.394,2.123,11.5,11.5,0,0,1,4.106,4.1,7.559,7.559,0,0,1,1.013,3.523,4.657,4.657,0,0,1-.05.956,1.323,1.323,0,0,1-.055.321" transform="translate(-4290.406 -23728.6)" fill="#263238"/>
          <path id="Path_513" data-name="Path 513" d="M232.338,175.541a11.19,11.19,0,0,1-1.28,1.323c-.421.419-.949.917-1.595,1.457s-1.352,1.194-2.2,1.828a60.408,60.408,0,0,1-6.132,4.24,62.247,62.247,0,0,1-16.8,7.035A60.372,60.372,0,0,1,197,192.819c-1.05.163-2.009.214-2.848.289s-1.564.106-2.157.113a11.115,11.115,0,0,1-1.842-.017,11.22,11.22,0,0,1,1.829-.207c.588-.041,1.309-.1,2.14-.211s1.783-.185,2.822-.371a67.827,67.827,0,0,0,7.245-1.505,66.176,66.176,0,0,0,16.664-6.978,67.573,67.573,0,0,0,6.154-4.107c.862-.61,1.586-1.231,2.244-1.75s1.21-.986,1.652-1.378a11.276,11.276,0,0,1,1.431-1.157" transform="translate(-4291.415 -23721.369)" fill="#263238"/>
          <path id="Path_514" data-name="Path 514" d="M225.444,142.694a2.46,2.46,0,0,1-.1.611c-.1.458-.23,1.03-.387,1.728a26.039,26.039,0,0,1-.733,2.706c-.334,1.041-.656,2.248-1.181,3.522q-.371.968-.775,2.019c-.275.7-.626,1.4-.954,2.141-.636,1.493-1.482,3-2.338,4.614a63.913,63.913,0,0,1-15.161,18.075c-1.435,1.124-2.777,2.22-4.137,3.105-.672.452-1.3.921-1.942,1.313l-1.854,1.114c-1.164.739-2.3,1.267-3.263,1.777a26.218,26.218,0,0,1-2.537,1.191l-1.635.682a2.485,2.485,0,0,1-.584.2,2.509,2.509,0,0,1,.539-.308l1.586-.779c.695-.321,1.538-.73,2.482-1.275s2.059-1.083,3.2-1.84l1.821-1.138c.631-.4,1.248-.873,1.91-1.33,1.338-.9,2.659-2,4.073-3.123a66.081,66.081,0,0,0,15.038-17.928c.862-1.589,1.718-3.081,2.366-4.554.336-.73.695-1.421.979-2.111s.546-1.355.8-1.992c.546-1.257.894-2.447,1.255-3.473s.627-1.926.823-2.666c.2-.687.36-1.248.491-1.7a2.513,2.513,0,0,1,.209-.584" transform="translate(-4291.663 -23724.924)" fill="#263238"/>
          <path id="Path_515" data-name="Path 515" d="M180.252,210.6a6.714,6.714,0,0,1-2.023-1.506,15.4,15.4,0,0,1-4.625-11.006,6.669,6.669,0,0,1,.338-2.5c.1.012-.014.964.069,2.487a17.33,17.33,0,0,0,4.512,10.732c1.03,1.125,1.789,1.711,1.729,1.79" transform="translate(-4293.207 -23719.197)" fill="#263238"/>
          <path id="Path_516" data-name="Path 516" d="M178.929,201.342c.165.043-.142,1.466.019,3.215.139,1.75.68,3.1.525,3.172a6.593,6.593,0,0,1-.544-6.387" transform="translate(-4292.694 -23718.576)" fill="#263238"/>
          <path id="Path_517" data-name="Path 517" d="M169.944,170.583a1.869,1.869,0,0,1-.134-.52c-.075-.411-.165-.908-.275-1.507-.234-1.4-.549-3.276-.929-5.552-.781-4.689-1.884-11.16-3.212-18.288s-2.634-13.565-3.6-18.22c-.464-2.261-.848-4.124-1.132-5.515-.115-.6-.211-1.095-.289-1.505a1.964,1.964,0,0,1-.062-.533,1.864,1.864,0,0,1,.176.508c.106.4.237.892.392,1.481.331,1.288.781,3.16,1.313,5.477,1.065,4.636,2.433,11.065,3.765,18.2s2.369,13.625,3.048,18.332c.337,2.354.593,4.262.748,5.583.066.605.121,1.107.166,1.523a1.887,1.887,0,0,1,.02.536" transform="translate(-4294.646 -23727.494)" fill="#263238"/>
          <path id="Path_518" data-name="Path 518" d="M233.022,170.8a1.968,1.968,0,0,1-.055-.549c-.013-.427-.029-.945-.048-1.574-.033-1.366-.039-3.344-.021-5.788.047-4.887.259-11.641.825-19.08s1.314-14.153,1.892-19c.3-2.357.544-4.3.727-5.741.092-.621.167-1.135.229-1.557a2.013,2.013,0,0,1,.119-.539,2.009,2.009,0,0,1,0,.552c-.033.426-.073.943-.121,1.569-.137,1.448-.321,3.395-.545,5.76-.473,4.861-1.16,11.574-1.721,19s-.842,14.165-.993,19.045c-.067,2.373-.121,4.327-.162,5.781-.024.627-.044,1.147-.061,1.573a2.017,2.017,0,0,1-.061.549" transform="translate(-4286.789 -23727.709)" fill="#263238"/>
          <path id="Path_519" data-name="Path 519" d="M154.071,169.643c-.2.086-1.656-3.953-4.481-8.342-2.845-4.39-6.148-7.152-6-7.3a10.383,10.383,0,0,1,2.171,1.769,29.878,29.878,0,0,1,4.317,5.212,36.066,36.066,0,0,1,3.113,6,11.48,11.48,0,0,1,.884,2.655" transform="translate(-4296.457 -23723.699)" fill="#263238"/>
          <path id="Path_520" data-name="Path 520" d="M155.977,164.827a20.73,20.73,0,0,1-1.242-2.158,17.348,17.348,0,0,0-3.831-4.484,24.448,24.448,0,0,0-5.071-3.09,14.391,14.391,0,0,1-2.246-1.09,8.708,8.708,0,0,1,2.408.716,19.8,19.8,0,0,1,5.275,3.019,15.085,15.085,0,0,1,3.822,4.732,7.381,7.381,0,0,1,.886,2.355" transform="translate(-4296.457 -23723.701)" fill="#263238"/>
          <path id="Path_521" data-name="Path 521" d="M166.94,141.139a1.592,1.592,0,0,1-.229.491,5.1,5.1,0,0,1-1.015,1.184,6.746,6.746,0,0,1-5.434,1.464,10.515,10.515,0,0,1-6.822-4.823,22.992,22.992,0,0,1-2.25-4.477c-.308-.81-.621-1.625-.883-2.5a6.788,6.788,0,0,1-.312-2.784,3.8,3.8,0,0,1,1.35-2.516,3.193,3.193,0,0,1,2.736-.489,5.339,5.339,0,0,1,3.647,3.458,5.2,5.2,0,0,1-.451,4.532,5.65,5.65,0,0,1-3.163,2.424,5.059,5.059,0,0,1-3.284-.155,5.63,5.63,0,0,1-2.049-1.392,4.773,4.773,0,0,1-.863-1.3,1.526,1.526,0,0,1-.164-.516,7.586,7.586,0,0,0,1.189,1.661,5.586,5.586,0,0,0,2,1.246,4.762,4.762,0,0,0,3.049.068,5.26,5.26,0,0,0,2.875-2.282,4.726,4.726,0,0,0,.36-4.1,4.828,4.828,0,0,0-3.276-3.086,2.633,2.633,0,0,0-2.258.393,3.242,3.242,0,0,0-1.127,2.138c-.2,1.717.585,3.4,1.151,5a22.77,22.77,0,0,0,2.163,4.386,10.192,10.192,0,0,0,6.449,4.716,6.632,6.632,0,0,0,5.221-1.235,8.147,8.147,0,0,0,1.389-1.5" transform="translate(-4296.005 -23726.668)" fill="#f4d4b5"/>
          <path id="Path_522" data-name="Path 522" d="M208.823,159.182a2.147,2.147,0,0,1-.3.263l-.926.716a24.548,24.548,0,0,1-3.816,2.4,11.737,11.737,0,0,1-3.106,1.033,8.105,8.105,0,0,1-3.889-.253c-2.719-.866-5.2-3.19-7.021-6.182a22.555,22.555,0,0,1,.205-23.549,12.177,12.177,0,0,1,5.217-4.876,6.843,6.843,0,0,1,3.736-.474,5.161,5.161,0,0,1,3.349,1.9,5.441,5.441,0,0,1,1.042,3.772,8.687,8.687,0,0,1-1.2,3.771,12.281,12.281,0,0,1-6.163,5,15.831,15.831,0,0,1-7.908.817,16.269,16.269,0,0,1-7.134-2.956,24.386,24.386,0,0,1-8.382-11.749,14.118,14.118,0,0,1-1.018-6.727,6.762,6.762,0,0,1,1.29-3.062,4.753,4.753,0,0,1,2.706-1.763,5.931,5.931,0,0,1,5.582,1.928,6.353,6.353,0,0,1,1.348,5.313,8.434,8.434,0,0,1-2.274,4.475,10.833,10.833,0,0,1-3.748,2.455,17.069,17.069,0,0,1-7.04,1.064,40.848,40.848,0,0,1-4.48-.456l-1.156-.186a1.991,1.991,0,0,1-.39-.084,2.037,2.037,0,0,1,.4.025l1.161.13c1.021.109,2.527.3,4.472.347a17.077,17.077,0,0,0,6.911-1.139,10.529,10.529,0,0,0,3.606-2.41,8.073,8.073,0,0,0,2.136-4.286,5.947,5.947,0,0,0-1.278-4.952,5.48,5.48,0,0,0-5.141-1.758c-1.945.412-3.307,2.371-3.6,4.439a13.664,13.664,0,0,0,1.02,6.47,23.912,23.912,0,0,0,8.209,11.467,15.715,15.715,0,0,0,6.889,2.846,15.278,15.278,0,0,0,7.618-.787,11.733,11.733,0,0,0,5.875-4.749,8.134,8.134,0,0,0,1.126-3.52,4.879,4.879,0,0,0-.921-3.388,4.6,4.6,0,0,0-2.99-1.69,6.294,6.294,0,0,0-3.433.43,11.682,11.682,0,0,0-4.985,4.659,21.727,21.727,0,0,0-3.379,12.3,21.96,21.96,0,0,0,3.076,10.746c1.769,2.95,4.169,5.23,6.773,6.088a9.161,9.161,0,0,0,6.8-.677,26.812,26.812,0,0,0,3.843-2.29l.959-.668a2.088,2.088,0,0,1,.337-.215" transform="translate(-4294.317 -23727.691)" fill="#f4d4b5"/>
          <path id="Path_523" data-name="Path 523" d="M178.942,98.965a3.3,3.3,0,0,1-.352.992,15.716,15.716,0,0,1-1.422,2.494,18.259,18.259,0,0,1-16.428,7.839,15.751,15.751,0,0,1-2.833-.463,3.313,3.313,0,0,1-.993-.35c.024-.1,1.465.32,3.847.406a19.041,19.041,0,0,0,16.076-7.67c1.432-1.905,2.008-3.293,2.1-3.246" transform="translate(-4295.014 -23729.658)" fill="#f4d4b5"/>
          <path id="Path_524" data-name="Path 524" d="M192.071,103.233a7.1,7.1,0,0,0-5.149,4.372c-.068-.01-.089-.441.129-1.094a5.189,5.189,0,0,1,3.92-3.328c.68-.109,1.1-.019,1.1.05" transform="translate(-4291.77 -23729.207)" fill="#f4d4b5"/>
          <path id="Path_525" data-name="Path 525" d="M213.341,110.069a2.538,2.538,0,0,1-.941-.433,7.677,7.677,0,0,1-2.084-1.917,7.529,7.529,0,0,1-1.536-3.93,3.749,3.749,0,0,1,.68-2.489,2.572,2.572,0,0,1,2.568-1.085,2.851,2.851,0,0,1,2.015,1.936,2.668,2.668,0,0,1-.508,2.549,3.587,3.587,0,0,1-4.015,1.064,4.5,4.5,0,0,1-2.191-1.813,2.108,2.108,0,0,1-.413-.953c.045-.021.2.316.6.823a4.614,4.614,0,0,0,2.142,1.558,3.179,3.179,0,0,0,3.466-1.011,2.134,2.134,0,0,0,.386-2.044,2.313,2.313,0,0,0-1.6-1.547,2.022,2.022,0,0,0-1.994.863,3.241,3.241,0,0,0-.6,2.123,7.408,7.408,0,0,0,1.337,3.716,11.559,11.559,0,0,0,2.693,2.589" transform="translate(-4289.601 -23729.529)" fill="#f4d4b5"/>
          <path id="Path_526" data-name="Path 526" d="M217.488,97.784a10.235,10.235,0,0,0-8.057-3.307c-.016-.067.48-.266,1.335-.331a7.517,7.517,0,0,1,6,2.464c.563.647.776,1.138.718,1.175" transform="translate(-4289.328 -23730.182)" fill="#f4d4b5"/>
          <path id="Path_527" data-name="Path 527" d="M248.3,109.953a.853.853,0,0,1-.218.136l-.667.348a28.812,28.812,0,0,1-2.663,1.132,32.083,32.083,0,0,1-10.44,1.962,14.8,14.8,0,0,1-3.544-.342,7.722,7.722,0,0,1-3.5-1.7,5.185,5.185,0,0,1-1.713-3.794,6.388,6.388,0,0,1,1.474-4.168,8.566,8.566,0,0,1,8.824-2.267,10.279,10.279,0,0,1,7.072,6.849,10.108,10.108,0,0,1-2.111,9.605,15.486,15.486,0,0,1-8.208,4.416,47.072,47.072,0,0,1-8.406.849,46.441,46.441,0,0,0-7.256.708,14.712,14.712,0,0,0-8.929,5.094,10.673,10.673,0,0,0-1.7,3.442.838.838,0,0,1,.035-.255,7.123,7.123,0,0,1,.176-.734,8.886,8.886,0,0,1,1.309-2.588,14.739,14.739,0,0,1,9.027-5.358,45.538,45.538,0,0,1,7.316-.787,47.347,47.347,0,0,0,8.31-.89,15.009,15.009,0,0,0,7.9-4.272,9.555,9.555,0,0,0,1.982-9.067,9.733,9.733,0,0,0-6.673-6.47c-2.987-.876-6.4-.125-8.263,2.066a5.884,5.884,0,0,0-1.373,3.818,4.7,4.7,0,0,0,1.529,3.451,7.32,7.32,0,0,0,3.275,1.621,14.555,14.555,0,0,0,3.438.368,33.232,33.232,0,0,0,10.369-1.765c1.184-.4,2.081-.771,2.69-1.026a7.256,7.256,0,0,1,.933-.378" transform="translate(-4289.666 -23729.449)" fill="#f4d4b5"/>
          <path id="Path_528" data-name="Path 528" d="M220.758,149.039c-.092.042-.48-.929-1.491-2.226a11.4,11.4,0,0,0-11.326-4.257c-1.616.31-2.546.786-2.588.694a6.055,6.055,0,0,1,2.5-1.093,10.962,10.962,0,0,1,11.744,4.414,6.018,6.018,0,0,1,1.163,2.468" transform="translate(-4289.77 -23725.018)" fill="#f4d4b5"/>
          <path id="Path_529" data-name="Path 529" d="M232.45,155.894a5.433,5.433,0,0,1-1.516,2.24,9.285,9.285,0,0,1-12.15.963,5.434,5.434,0,0,1-1.851-1.972c.079-.07.715.755,2.081,1.636a9.445,9.445,0,0,0,11.639-.924c1.21-1.085,1.709-2,1.8-1.943" transform="translate(-4288.517 -23723.496)" fill="#f4d4b5"/>
          <path id="Path_530" data-name="Path 530" d="M235.1,136.144c-.049.083-.716-.32-1.894-.632a8.116,8.116,0,0,0-8.488,2.714c-.779.938-1.088,1.654-1.176,1.614a3.858,3.858,0,0,1,.852-1.862,7.767,7.767,0,0,1,8.931-2.856,3.85,3.85,0,0,1,1.774,1.022" transform="translate(-4287.801 -23725.791)" fill="#f4d4b5"/>
          <path id="Path_531" data-name="Path 531" d="M274.261,126.979a4.509,4.509,0,0,1,.2.822,5.964,5.964,0,0,1,.138,1.02,8.132,8.132,0,0,1,.039,1.406,14.06,14.06,0,0,1-3.175,8.259,14.611,14.611,0,0,1-4.779,3.939,14.8,14.8,0,0,1-6.923,1.589,18.621,18.621,0,0,1-14.236-7.045,11.142,11.142,0,0,1-2.006-3.839,7.276,7.276,0,0,1,.072-4.229,5.388,5.388,0,0,1,2.593-3.163,5.973,5.973,0,0,1,3.9-.461,6.623,6.623,0,0,1,3.295,1.748,7.589,7.589,0,0,1,1.808,3.006,10.07,10.07,0,0,1-.05,6.184,11.762,11.762,0,0,1-2.616,4.391,11.985,11.985,0,0,1-3.051,2.358,11.37,11.37,0,0,1-2.262.9,4.441,4.441,0,0,1-.832.156,16.488,16.488,0,0,0,2.986-1.253,11.959,11.959,0,0,0,5.386-6.676,9.713,9.713,0,0,0-.014-5.91,7.119,7.119,0,0,0-1.712-2.8,6.116,6.116,0,0,0-3.043-1.587,5.448,5.448,0,0,0-3.536.429,4.84,4.84,0,0,0-2.311,2.852,6.72,6.72,0,0,0-.054,3.9,10.613,10.613,0,0,0,1.908,3.638,18.19,18.19,0,0,0,13.784,6.867,14.111,14.111,0,0,0,11.378-5.253,14.127,14.127,0,0,0,3.27-8.014,20.457,20.457,0,0,0-.156-3.237" transform="translate(-4285.668 -23726.824)" fill="#f4d4b5"/>
          <path id="Path_532" data-name="Path 532" d="M279.159,149.809a2.953,2.953,0,0,1-.674-.76,7.981,7.981,0,0,1-1.211-2.508,10.269,10.269,0,0,1-.167-4.128,37.748,37.748,0,0,1,1.125-4.893,34.686,34.686,0,0,1,3.965-8.18c.623-.981,1.149-1.757,1.525-2.286a3.482,3.482,0,0,1,.633-.79,28.025,28.025,0,0,1-1.808,3.287,40.768,40.768,0,0,0-3.764,8.138,43.643,43.643,0,0,0-1.15,4.8,10.471,10.471,0,0,0,.037,3.952,14.809,14.809,0,0,0,1.49,3.368" transform="translate(-4282.016 -23726.703)" fill="#f4d4b5"/>
          <path id="Path_533" data-name="Path 533" d="M298.319,124.5c.038-.012.155.269.335.794a14.177,14.177,0,0,1,.56,2.277,20.432,20.432,0,0,1-3.269,14.816,14.323,14.323,0,0,1-1.466,1.831c-.383.4-.608.605-.638.579-.078-.069.735-.979,1.762-2.632a22.51,22.51,0,0,0,3.208-14.535c-.236-1.933-.59-3.1-.491-3.13" transform="translate(-4280.191 -23726.893)" fill="#f4d4b5"/>
          <path id="Path_534" data-name="Path 534" d="M235.146,171.622a1.974,1.974,0,0,1-.484-.248,12.756,12.756,0,0,0-1.353-.737,15.879,15.879,0,0,0-5.4-1.514,16.462,16.462,0,0,0-8.138,1.3,13.973,13.973,0,0,0-4.064,2.693,8.362,8.362,0,0,0-1.6,1.979,4,4,0,0,0-.557,2.433,2.9,2.9,0,0,0,1.184,2.081,2.367,2.367,0,0,0,2.259.1,3.971,3.971,0,0,0,2.056-3.893,7.87,7.87,0,0,0-4.109-6.665,8.1,8.1,0,0,0-5.427-.718,16.587,16.587,0,0,0-1.972.638,1.789,1.789,0,0,1,.459-.3,7.273,7.273,0,0,1,1.461-.562,8.112,8.112,0,0,1,5.667.575,8.254,8.254,0,0,1,4.454,7.019,5.746,5.746,0,0,1-.47,2.5,3.763,3.763,0,0,1-1.889,1.917,2.929,2.929,0,0,1-2.8-.14,3.458,3.458,0,0,1-1.444-2.492,4.565,4.565,0,0,1,.628-2.783,8.964,8.964,0,0,1,1.712-2.109,14.343,14.343,0,0,1,4.24-2.77,16.542,16.542,0,0,1,8.4-1.223,15.061,15.061,0,0,1,5.463,1.72,9.066,9.066,0,0,1,1.313.84,1.929,1.929,0,0,1,.42.345" transform="translate(-4289.533 -23722.189)" fill="#f4d4b5"/>
          <path id="Path_535" data-name="Path 535" d="M236.377,179.538a7.321,7.321,0,0,1-1.341,2.543c-.873,1.318-1.688,2.313-1.822,2.225a7.337,7.337,0,0,1,1.342-2.545c.872-1.317,1.689-2.312,1.821-2.224" transform="translate(-4286.756 -23720.936)" fill="#f4d4b5"/>
          <path id="Path_536" data-name="Path 536" d="M249.376,194.234c-.09.024-.244-.4-.629-.967a5.754,5.754,0,0,0-4.505-2.509c-.689-.025-1.128.064-1.155-.024-.022-.061.389-.3,1.141-.383a5.06,5.06,0,0,1,4.872,2.713c.327.683.34,1.159.276,1.171" transform="translate(-4285.685 -23719.768)" fill="#f4d4b5"/>
          <path id="Path_537" data-name="Path 537" d="M208.965,188.755c.04.082-1.333.764-3.472,1.985a29.976,29.976,0,0,0-7.538,5.825,16.047,16.047,0,0,0-3.991,8.469,19.6,19.6,0,0,0,.062,3.951,3.246,3.246,0,0,1-.317-1.036,10.518,10.518,0,0,1-.151-2.957,15.539,15.539,0,0,1,3.964-8.81,27.151,27.151,0,0,1,7.773-5.8c1.1-.573,2.015-.992,2.652-1.263a3.786,3.786,0,0,1,1.017-.364" transform="translate(-4291.051 -23719.938)" fill="#f4d4b5"/>
          <path id="Path_538" data-name="Path 538" d="M222.359,194.684c-.036.043-.621-.365-1.208-1.332a7.4,7.4,0,0,1,.69-8.275c.739-.858,1.383-1.164,1.411-1.114.062.081-.477.5-1.088,1.362a7.954,7.954,0,0,0-.653,7.834c.459.955.922,1.455.848,1.525" transform="translate(-4288.163 -23720.457)" fill="#f4d4b5"/>
          <path id="Path_539" data-name="Path 539" d="M202.608,175.815c-.027.02-.2-.25-.635-.642a4.6,4.6,0,0,0-2.309-1.025,5.761,5.761,0,0,0-3.866.807,11.752,11.752,0,0,0-3.669,3.873c-1.095,1.682-2.024,3.712-3.425,5.683a12.084,12.084,0,0,1-6.111,4.567,11.326,11.326,0,0,1-8.388-.488,12,12,0,0,1-6.169-6.576,7.152,7.152,0,0,1-.19-4.676,6.552,6.552,0,0,1,2.874-3.524,6.747,6.747,0,0,1,4.282-.981,7.064,7.064,0,0,1,3.8,1.81,9.308,9.308,0,0,1,3.008,6.966,11.509,11.509,0,0,1-2.069,6.329,12.844,12.844,0,0,1-4.007,3.768,15.918,15.918,0,0,1-3.807,1.656,16.886,16.886,0,0,1-2.561.542c-.3.043-.524.059-.677.071a.72.72,0,0,1-.233,0,6.745,6.745,0,0,1,.891-.186,20.916,20.916,0,0,0,2.514-.642,16.3,16.3,0,0,0,3.7-1.716,12.658,12.658,0,0,0,3.839-3.723,11.138,11.138,0,0,0,1.929-6.1,8.836,8.836,0,0,0-2.884-6.567,6.537,6.537,0,0,0-3.514-1.659,6.2,6.2,0,0,0-3.922.915,6,6,0,0,0-2.623,3.222,6.6,6.6,0,0,0,.187,4.3,11.479,11.479,0,0,0,5.865,6.259,10.81,10.81,0,0,0,7.984.494,11.631,11.631,0,0,0,5.889-4.343c1.381-1.905,2.334-3.925,3.47-5.624a11.954,11.954,0,0,1,3.848-3.93,5.954,5.954,0,0,1,4.066-.749,4.546,4.546,0,0,1,2.349,1.161,2.774,2.774,0,0,1,.556.727" transform="translate(-4293.863 -23721.666)" fill="#f4d4b5"/>
          <path id="Path_540" data-name="Path 540" d="M200.007,192.455a5.369,5.369,0,0,1-1.788-1.413,12.205,12.205,0,0,1-3.068-10.286,5.372,5.372,0,0,1,.723-2.162c.094.032-.172.857-.318,2.22a13.553,13.553,0,0,0,2.969,9.959c.87,1.06,1.544,1.6,1.482,1.682" transform="translate(-4290.893 -23721.037)" fill="#f4d4b5"/>
          <path id="Path_541" data-name="Path 541" d="M207.028,169.327c-.03.058-.781-.372-2.228-.94a26.568,26.568,0,0,0-15.962-1.195,21.527,21.527,0,0,0-5.317,1.993,3.543,3.543,0,0,0-1.76,2.1,2,2,0,0,0,1.147,2.23,1.2,1.2,0,0,0,1.168-.352,2.916,2.916,0,0,0,.663-1.237,10.256,10.256,0,0,0,.255-2.945,13.327,13.327,0,0,0-1.419-5.44,12.708,12.708,0,0,0-3.129-4.022,12.443,12.443,0,0,0-3.86-2.219,13.462,13.462,0,0,0-6.423-.639c-1.528.243-2.332.58-2.351.523a2.569,2.569,0,0,1,.573-.259,11.34,11.34,0,0,1,1.74-.485,13.149,13.149,0,0,1,6.6.475,12.688,12.688,0,0,1,4.034,2.239,13.069,13.069,0,0,1,3.295,4.147,13.734,13.734,0,0,1,1.508,5.657,10.653,10.653,0,0,1-.267,3.129,3.47,3.47,0,0,1-.809,1.487,1.778,1.778,0,0,1-1.729.5,2.19,2.19,0,0,1-1.315-1.192,2.788,2.788,0,0,1-.24-1.7,4.072,4.072,0,0,1,2.03-2.479,21.615,21.615,0,0,1,5.488-2.026,26.278,26.278,0,0,1,9.816-.358,24.734,24.734,0,0,1,6.357,1.862,15.456,15.456,0,0,1,1.608.812,2.517,2.517,0,0,1,.532.335" transform="translate(-4293.834 -23723.459)" fill="#f4d4b5"/>
          <path id="Path_542" data-name="Path 542" d="M126.217,173.772c-.035-.048.688-.535,1.781-1.642a15.447,15.447,0,0,0,3.483-5.5,12.045,12.045,0,0,0-.279-9.378,11.846,11.846,0,0,0-3.538-4.367,9.964,9.964,0,0,0-5.581-2.095,6.433,6.433,0,0,0-2.932.613,3.7,3.7,0,0,0-1.949,1.977,2.851,2.851,0,0,0,.4,2.572,4.192,4.192,0,0,0,2.1,1.56,5.724,5.724,0,0,0,4.8-.815,8.126,8.126,0,0,0,2.909-3.3,16.682,16.682,0,0,0,1.387-6.366c.031-.728.057-1.323.076-1.8a2.632,2.632,0,0,1,.054-.63,2.581,2.581,0,0,1,.062.628c.019.412.039,1.021.031,1.806a16.024,16.024,0,0,1-1.243,6.534,8.465,8.465,0,0,1-3.017,3.526,6.2,6.2,0,0,1-5.221.921,4.7,4.7,0,0,1-2.394-1.755,3.405,3.405,0,0,1-.478-3.07,4.256,4.256,0,0,1,2.233-2.307,6.975,6.975,0,0,1,3.2-.674,10.477,10.477,0,0,1,5.907,2.222,12.305,12.305,0,0,1,3.675,4.59,11.583,11.583,0,0,1,1.094,5.208,13.454,13.454,0,0,1-.913,4.539,14.957,14.957,0,0,1-3.708,5.516,11.332,11.332,0,0,1-1.4,1.149,2.627,2.627,0,0,1-.537.332" transform="translate(-4299.39 -23724.717)" fill="#f4d4b5"/>
          <path id="Path_543" data-name="Path 543" d="M146.5,188.624a4.624,4.624,0,0,1-.867-.921,18.1,18.1,0,0,1-1.9-2.884,20.458,20.458,0,0,1,1.43-21.688,18.069,18.069,0,0,1,2.259-2.609,4.622,4.622,0,0,1,.981-.8c.082.081-1.3,1.252-2.9,3.639a21.052,21.052,0,0,0-1.4,21.271c1.275,2.577,2.494,3.921,2.4,3.991" transform="translate(-4296.705 -23723.08)" fill="#f4d4b5"/>
          <path id="Path_544" data-name="Path 544" d="M167.88,165.631c-.105.037-.564-1.668-1.938-4.114a22.778,22.778,0,0,0-17.516-11.585c-2.788-.306-4.536-.063-4.544-.174a4.44,4.44,0,0,1,1.216-.208,19.126,19.126,0,0,1,3.367-.024,21.941,21.941,0,0,1,17.836,11.8,19.4,19.4,0,0,1,1.3,3.108,4.506,4.506,0,0,1,.283,1.2" transform="translate(-4296.424 -23724.191)" fill="#f4d4b5"/>
          <g id="Group_2282" data-name="Group 2282" transform="translate(-4099.026 -23542.41)" opacity="0.3">
            <g id="Group_2281" data-name="Group 2281">
              <g id="Group_2280" data-name="Group 2280" clip-path="url(#clip-path-9)">
                <path id="Path_545" data-name="Path 545" d="M192.936,193.492c-1.056.452-.959,2.141-.072,2.871a4.742,4.742,0,0,0,3.292.7,42.775,42.775,0,0,0,32.834-18.441c-10.02,8.22-23.161,11.324-35.8,14.19" transform="translate(-192.171 -178.625)"/>
              </g>
            </g>
          </g>
          <g id="Group_2285" data-name="Group 2285" transform="translate(-4100.764 -23574.182)" opacity="0.3">
            <g id="Group_2284" data-name="Group 2284">
              <g id="Group_2283" data-name="Group 2283" clip-path="url(#clip-path-10)">
                <path id="Path_546" data-name="Path 546" d="M191.128,185.288c-1.092-1.672-.357-4.02,1.053-5.436s3.33-2.164,5.122-3.049a32.379,32.379,0,0,0,14.934-15.334c2.013-4.364,3.542-9.72,8-11.514a43.281,43.281,0,0,1-28.492,33.979" transform="translate(-190.603 -149.956)"/>
              </g>
            </g>
          </g>
          <g id="Group_2288" data-name="Group 2288" transform="translate(-4135.491 -23596.311)" opacity="0.3">
            <g id="Group_2287" data-name="Group 2287">
              <g id="Group_2286" data-name="Group 2286" clip-path="url(#clip-path-11)">
                <path id="Path_547" data-name="Path 547" d="M163.057,129.989a112.577,112.577,0,0,1-2.55,36.221,30.985,30.985,0,0,0-1.237,7.633,10.143,10.143,0,0,0,3.685,7.165c1.842-4.237,1.875-8.325,2.65-12.893.7-4.117,1.869-13.721,1.871-13.862.163-8.408-1.822-15.606-5.049-23.177" transform="translate(-159.268 -129.989)"/>
              </g>
            </g>
          </g>
          <g id="Group_2291" data-name="Group 2291" transform="translate(-4111.421 -23632.881)" opacity="0.3">
            <g id="Group_2290" data-name="Group 2290">
              <g id="Group_2289" data-name="Group 2289" clip-path="url(#clip-path-12)">
                <path id="Path_548" data-name="Path 548" d="M181.6,97.178a44.162,44.162,0,0,0,12.542,23.535c2.451,2.388,5.5,4.595,8.918,4.485a20.866,20.866,0,0,1-1.711-13.063,54.146,54.146,0,0,0,9.128,4.966,18.157,18.157,0,0,0,10.2,1.158q1.064-9.208,2.13-18.417a3.4,3.4,0,0,0-.192-2.058,1.176,1.176,0,0,0-1.755-.419,1.683,1.683,0,0,0-.345.807c-1.25,5.382-1.944,10.2-3.193,15.578-.9.889-3.657.523-5.475-.149-1.584-.584-2.191-1.894-3.239-3.216s-.862-1.092-2.416-1.751c-2.855-1.211-8.342-.246-9.538,2.32s-.29,5.942.505,8.462A38.391,38.391,0,0,1,180.986,96.99" transform="translate(-180.986 -96.99)"/>
              </g>
            </g>
          </g>
          <g id="Group_2294" data-name="Group 2294" transform="translate(-4052.713 -23606.699)" opacity="0.3">
            <g id="Group_2293" data-name="Group 2293">
              <g id="Group_2292" data-name="Group 2292" clip-path="url(#clip-path-13)">
                <path id="Path_549" data-name="Path 549" d="M236.294,120.614c-.223.446,6.9,24.47,6.9,24.47l-9.236-5.263Z" transform="translate(-233.96 -120.614)"/>
              </g>
            </g>
          </g>
          <path id="Path_550" data-name="Path 550" d="M184.3,59.657V97.911a9.276,9.276,0,0,0,2.18,5.973,28.012,28.012,0,0,0,7.681,6.362l7.717,4.345,6.382-5.7a9.285,9.285,0,0,0,3.091-6.559c.11-2.787.11-5.594.11-5.594s10.814-.776,11.829-11.441c.478-5.021.629-15.3.656-24.783A20.744,20.744,0,0,0,204.911,39.8l-.3-.026a19.824,19.824,0,0,0-20.3,19.887" transform="translate(-4292.049 -23736.066)" fill="#ffceb9"/>
          <path id="Path_551" data-name="Path 551" d="M210.133,91.69a25.873,25.873,0,0,1-13.559-5.26s2.8,8.091,13.531,8.012Z" transform="translate(-4290.72 -23731.016)" fill="#eab071"/>
          <path id="Path_552" data-name="Path 552" d="M217.526,64.824a1.53,1.53,0,0,1-1.6,1.416,1.463,1.463,0,0,1-1.457-1.505,1.529,1.529,0,0,1,1.595-1.417,1.464,1.464,0,0,1,1.46,1.506" transform="translate(-4288.783 -23733.518)" fill="#263238"/>
          <path id="Path_553" data-name="Path 553" d="M218.2,62.556c-.205.183-1.29-.767-2.93-.9-1.638-.155-2.911.59-3.072.375-.081-.1.142-.44.7-.778a4.2,4.2,0,0,1,2.48-.545,4.032,4.032,0,0,1,2.312.964c.472.429.614.8.513.883" transform="translate(-4289.03 -23733.801)" fill="#263238"/>
          <path id="Path_554" data-name="Path 554" d="M203.564,64.122a1.532,1.532,0,0,1-1.6,1.417,1.465,1.465,0,0,1-1.458-1.505,1.532,1.532,0,0,1,1.6-1.419,1.465,1.465,0,0,1,1.458,1.506" transform="translate(-4290.294 -23733.592)" fill="#263238"/>
          <path id="Path_555" data-name="Path 555" d="M203.632,61.628c-.206.183-1.291-.767-2.931-.9-1.637-.154-2.91.59-3.072.373-.08-.1.141-.439.7-.777a4.2,4.2,0,0,1,2.479-.545,4.035,4.035,0,0,1,2.313.964c.471.428.613.8.513.883" transform="translate(-4290.608 -23733.9)" fill="#263238"/>
          <path id="Path_556" data-name="Path 556" d="M207.507,74.209a10.849,10.849,0,0,1,2.7-.26c.422-.009.826-.059.92-.339a2.142,2.142,0,0,0-.176-1.265q-.465-1.569-.975-3.293c-1.344-4.683-2.281-8.521-2.091-8.573s1.432,3.7,2.776,8.385c.321,1.155.63,2.254.921,3.307a2.429,2.429,0,0,1,.082,1.662,1.057,1.057,0,0,1-.739.555,2.815,2.815,0,0,1-.72.04,10.671,10.671,0,0,1-2.7-.219" transform="translate(-4289.537 -23733.824)" fill="#263238"/>
          <path id="Path_557" data-name="Path 557" d="M203.1,73.532c.268.007.124,1.788,1.544,3.177s3.331,1.351,3.325,1.6c.016.113-.452.31-1.255.266a4.45,4.45,0,0,1-2.784-1.236,3.88,3.88,0,0,1-1.18-2.655c-.006-.749.229-1.174.35-1.154" transform="translate(-4290.052 -23732.41)" fill="#263238"/>
          <path id="Path_558" data-name="Path 558" d="M204.643,55.825c-.2.432-1.82.085-3.763.158-1.946.033-3.544.469-3.767.048-.1-.2.207-.6.871-.979a6.543,6.543,0,0,1,5.735-.156c.684.342,1.01.723.923.929" transform="translate(-4290.664 -23734.492)" fill="#263238"/>
          <path id="Path_559" data-name="Path 559" d="M217.97,58.235c-.319.349-1.417-.132-2.775-.263-1.352-.177-2.53.043-2.763-.369-.1-.2.112-.556.644-.868a4.037,4.037,0,0,1,4.462.509c.449.422.574.819.432.991" transform="translate(-4289.006 -23734.277)" fill="#263238"/>
          <path id="Path_560" data-name="Path 560" d="M197.023,48.71l-.062.041a8.427,8.427,0,0,0-3.571,5.172c-.017.074-.033.145-.048.213-.669,3.01-.851,6.114-1.549,9.118s-.57,5.3-3.579,5.976a4.007,4.007,0,0,1-4.189-1.7,2.607,2.607,0,0,1-.264-1.426c.039-7.4-1.449-10.272-.8-17.959a6.5,6.5,0,0,1,3.126-5.053c1.7-1.02,3.769-2.054,5.488-1.059s3.758,4.536,5.028,6.07" transform="translate(-4292.211 -23735.865)" fill="#263238"/>
          <path id="Path_561" data-name="Path 561" d="M187.924,62.4c-.175-.093-7.155-2.776-7.526,4.542s7.052,6.181,7.075,5.97.451-10.512.451-10.512" transform="translate(-4292.473 -23733.676)" fill="#ffbea1"/>
          <path id="Path_562" data-name="Path 562" d="M185.2,69.8c-.031-.024-.132.083-.352.171a1.274,1.274,0,0,1-.954-.029,3.157,3.157,0,0,1-1.316-2.9,4.2,4.2,0,0,1,.449-1.808,1.476,1.476,0,0,1,1.008-.93.65.65,0,0,1,.735.388c.088.209.034.354.072.368.02.019.163-.115.12-.42a.818.818,0,0,0-.265-.473.962.962,0,0,0-.695-.222A1.793,1.793,0,0,0,182.609,65a4.333,4.333,0,0,0-.545,2.017c-.028,1.476.657,2.895,1.7,3.254a1.369,1.369,0,0,0,1.176-.134c.236-.17.283-.331.258-.346" transform="translate(-4292.291 -23733.449)" fill="#eab071"/>
          <path id="Path_563" data-name="Path 563" d="M190.463,43.761c-1.555-3.069,3.715-6.853,7.411-7.691s8.3,1.311,11.782,2.8c2.2.938,4.367,2.17,6.756,2.27a16.188,16.188,0,0,0,4.724-.8,11.846,11.846,0,0,1,4.744-.535,4.416,4.416,0,0,1,3.64,2.754c.483,1.528-.552,3.483-2.153,3.573a3.774,3.774,0,0,1,5.053,3.065,3.777,3.777,0,0,1-4.646,3.655c1.1-.7,2.586.73,2.351,2.016a3.79,3.79,0,0,1-2.724,2.556c-3.154,1.085-6.667.365-9.729-.956s-5.847-3.215-8.876-4.611-8.09-3.873-11.316-3.027c-2.376.622-4.212,3.269-5.465,2.548a4.477,4.477,0,0,1-2.038-3.473,13,13,0,0,1,.488-4.143" transform="translate(-4291.438 -23736.486)" fill="#263238"/>
          <path id="Path_564" data-name="Path 564" d="M228.057,45.8c-.058-.041-.421.509-1.276,1.3a10.1,10.1,0,0,1-4.271,2.275,9.283,9.283,0,0,1-6.937-.858c-2.391-1.317-4.33-3.718-6.6-6.018A15.194,15.194,0,0,0,201.1,37.88a8.437,8.437,0,0,0-7.178,1.839,6.394,6.394,0,0,0-2.047,4.58,4.946,4.946,0,0,0,.2,1.368c.107.3.178.446.2.438a11.732,11.732,0,0,1-.124-1.8,6.3,6.3,0,0,1,2.109-4.21,8,8,0,0,1,6.715-1.563,14.82,14.82,0,0,1,7.485,4.476c2.23,2.248,4.23,4.713,6.79,6.089a9.959,9.959,0,0,0,11.726-1.8,6.838,6.838,0,0,0,.856-1.075c.167-.265.245-.41.224-.423" transform="translate(-4291.229 -23736.287)" fill="#455a64"/>
          <path id="Path_565" data-name="Path 565" d="M185.664,63.745c.024.027.331-.174.655-.731A4.921,4.921,0,0,0,186.9,60.4c.032-2.365-1.837-5.061-1.833-8.331a7.359,7.359,0,0,1,1.168-4.29,5.6,5.6,0,0,1,2.906-2.119,4.787,4.787,0,0,1,2.465-.13c.578.142.882.3.914.248.02-.028-.237-.278-.833-.518a4.574,4.574,0,0,0-2.682-.094,5.913,5.913,0,0,0-3.314,2.226,7.763,7.763,0,0,0-1.348,4.685,13.36,13.36,0,0,0,1.026,4.716,13.886,13.886,0,0,1,1.02,3.635,5.645,5.645,0,0,1-.727,3.317" transform="translate(-4292.044 -23735.498)" fill="#455a64"/>
          <rect id="Rectangle_1801" data-name="Rectangle 1801" width="459.418" height="518.745" transform="translate(-4312 -23740.371)" fill="none"/>
          <g id="Group_2297" data-name="Group 2297" transform="translate(-4312 -23740.371)" clip-path="url(#clip-path-2)">
            <path id="Path_566" data-name="Path 566" d="M228.343,252.631s-.559.024-1.649.042l-4.839.068c-4.253.069-10.526.231-18.594.626-8.067.42-17.93,1.13-29.331,2.432-5.7.685-11.782,1.467-18.2,2.533-6.423,1.026-13.183,2.305-20.222,3.908s-14.362,3.514-21.851,5.958A146.187,146.187,0,0,0,91,277.546a74.049,74.049,0,0,0-10.868,6.941,34.75,34.75,0,0,0-8.9,9.734c-.269.49-.561.971-.816,1.468l-.627,1.564-.315.782c-.086.267-.136.545-.207.818l-.4,1.646a16.532,16.532,0,0,0,.332,6.763c1.085,4.494,4.05,8.364,7.447,11.622,6.944,6.521,15.8,11.06,24.983,14.867a204.884,204.884,0,0,0,29.109,9.208c20.183,4.917,41.576,7.812,63.543,9.357a504.607,504.607,0,0,0,64.29.252,404.5,404.5,0,0,0,59.354-7.745,251.28,251.28,0,0,0,26.912-7.258,133.968,133.968,0,0,0,24.056-10.48,65.853,65.853,0,0,0,10.142-7.225,29.342,29.342,0,0,0,7.343-9.348l.545-1.353a7.152,7.152,0,0,0,.469-1.368l.338-1.4c.051-.234.124-.463.157-.7l.058-.714a14.005,14.005,0,0,0-.417-5.59,19.864,19.864,0,0,0-2.344-5,30.689,30.689,0,0,0-3.431-4.213,51.726,51.726,0,0,0-8.112-6.686,85.857,85.857,0,0,0-8.6-5.127,149.045,149.045,0,0,0-16.765-7.462,252.036,252.036,0,0,0-28.1-8.664c-7.836-1.959-13.989-3.192-18.167-3.992-2.085-.416-3.685-.683-4.755-.888s-1.619-.314-1.619-.314,2.211.325,6.4,1.087,10.348,1.961,18.2,3.888a248.96,248.96,0,0,1,28.163,8.581,148.661,148.661,0,0,1,16.821,7.439,85.978,85.978,0,0,1,8.645,5.13,52.177,52.177,0,0,1,8.188,6.724,31.161,31.161,0,0,1,3.488,4.269,20.243,20.243,0,0,1,2.4,5.115,14.41,14.41,0,0,1,.44,5.756l-.059.733c-.033.242-.107.478-.16.718l-.345,1.437a7.372,7.372,0,0,1-.478,1.4l-.555,1.384a29.757,29.757,0,0,1-7.44,9.505,66.3,66.3,0,0,1-10.209,7.293A134.2,134.2,0,0,1,345,338.046a251.239,251.239,0,0,1-26.963,7.3,403.93,403.93,0,0,1-59.43,7.79,503.72,503.72,0,0,1-64.364-.242c-21.994-1.547-43.415-4.449-63.637-9.384a205.217,205.217,0,0,1-29.185-9.247c-9.216-3.829-18.113-8.386-25.142-14.994-3.438-3.3-6.466-7.245-7.584-11.877a17.045,17.045,0,0,1-.335-6.976l.408-1.694c.073-.28.126-.567.215-.842l.324-.8.645-1.6c.262-.51.559-1,.836-1.5a35.194,35.194,0,0,1,9.032-9.869,74.351,74.351,0,0,1,10.948-6.975,146.293,146.293,0,0,1,22.747-9.35c7.51-2.438,14.848-4.343,21.9-5.932s13.821-2.859,20.253-3.872c6.427-1.054,12.52-1.822,18.222-2.491,11.413-1.272,21.284-1.951,29.357-2.335,8.074-.362,14.35-.488,18.6-.519l4.84-.01c1.09,0,1.649.017,1.649.017" transform="translate(7.379 27.346)" fill="#fff"/>
            <path id="Path_567" data-name="Path 567" d="M140.141,177.652s-.63.141-1.864.387-3.074.592-5.476,1.107c-4.805,1-11.887,2.541-20.882,5a214.124,214.124,0,0,0-31.991,11.309c-3.007,1.381-6.081,2.894-9.153,4.639a85.8,85.8,0,0,0-9.186,5.893,50.52,50.52,0,0,0-8.48,7.794,26.712,26.712,0,0,0-5.75,10.542,19.36,19.36,0,0,0,.912,12.411,32.08,32.08,0,0,0,7.672,10.73c6.559,6.293,14.885,11.058,23.744,15.159,17.85,8.11,38.236,13.55,59.87,17.61a502.616,502.616,0,0,0,68.685,7.576,591.885,591.885,0,0,0,74.191-1.322c25.345-2.111,50-5.833,73.2-11.927a219.464,219.464,0,0,0,33.34-11.447,114.014,114.014,0,0,0,15.062-8.04,57.36,57.36,0,0,0,12.69-10.7c3.534-4.132,6.141-9.2,6.292-14.546a12.565,12.565,0,0,0-.069-1.98,13.027,13.027,0,0,0-.209-1.963l-.432-1.925a13.207,13.207,0,0,0-.632-1.86,27.746,27.746,0,0,0-3.8-6.8,52.153,52.153,0,0,0-11.242-10.385,102.015,102.015,0,0,0-12.869-7.523A181.948,181.948,0,0,0,367.4,187.043c-8.681-2.716-17.151-4.869-25.287-6.671a487.255,487.255,0,0,0-78.253-9.982c-9.314-.483-16.557-.5-21.466-.628l-5.584-.122c-1.258-.03-1.9-.061-1.9-.061s.645-.009,1.9,0l5.586.064c4.911.088,12.155.072,21.475.521a481.706,481.706,0,0,1,78.33,9.807c8.148,1.791,16.633,3.934,25.333,6.645a181.982,181.982,0,0,1,26.437,10.342,102.384,102.384,0,0,1,12.94,7.547,52.562,52.562,0,0,1,11.362,10.482,28.273,28.273,0,0,1,3.881,6.922,13.68,13.68,0,0,1,.646,1.9l.444,1.973a13.447,13.447,0,0,1,.218,2.016,13.132,13.132,0,0,1,.072,2.035,20.638,20.638,0,0,1-1.923,7.928,29.439,29.439,0,0,1-4.483,6.941,57.862,57.862,0,0,1-12.8,10.818,114.617,114.617,0,0,1-15.13,8.088,219.8,219.8,0,0,1-33.422,11.49c-23.242,6.113-47.925,9.841-73.3,11.956a590.879,590.879,0,0,1-74.263,1.312,501.918,501.918,0,0,1-68.757-7.618c-21.661-4.082-42.074-9.543-59.972-17.7-8.885-4.125-17.243-8.916-23.855-15.274a32.514,32.514,0,0,1-7.758-10.889,19.782,19.782,0,0,1-.912-12.674,27.088,27.088,0,0,1,5.849-10.691,50.84,50.84,0,0,1,8.557-7.839,86.362,86.362,0,0,1,9.236-5.9c3.086-1.744,6.172-3.255,9.187-4.631a212.906,212.906,0,0,1,32.066-11.232c9.012-2.427,16.1-3.932,20.918-4.9s7.363-1.38,7.363-1.38" transform="translate(5.014 18.357)" fill="#fff"/>
            <path id="Path_568" data-name="Path 568" d="M173.769,328.131l-5.528.872c-3.622.582-8.957,1.5-15.764,2.988a200.668,200.668,0,0,0-24.417,6.883,113.773,113.773,0,0,0-14.517,6.307,63.4,63.4,0,0,0-7.367,4.5,38.364,38.364,0,0,0-6.773,6.03,22.011,22.011,0,0,0-2.674,3.856,15.22,15.22,0,0,0-1.651,4.482c-.063.4-.157.795-.2,1.2l-.071,1.219c.007.815.1,1.634.176,2.453a24.607,24.607,0,0,0,.636,2.4l.469,1.165.236.584.311.551a27.4,27.4,0,0,0,6.658,7.836,54.862,54.862,0,0,0,8.929,5.992,117.97,117.97,0,0,0,20.9,8.723,217.106,217.106,0,0,0,23.3,5.956,347.233,347.233,0,0,0,51.26,6.126,417.456,417.456,0,0,0,55.432-.964c18.93-1.639,37.346-4.538,54.6-9.41a137.6,137.6,0,0,0,24.6-9.373,61.461,61.461,0,0,0,10.7-6.912c.846-.628,1.556-1.405,2.336-2.1.762-.711,1.41-1.531,2.118-2.287a20.393,20.393,0,0,0,3.152-5.269,14.132,14.132,0,0,0-.489-11.686,28.059,28.059,0,0,0-7.634-8.887c-6.1-4.854-13.037-8.12-19.809-10.841a167,167,0,0,0-20.164-6.458c-6.582-1.7-12.974-3.037-19.107-4.114a378.245,378.245,0,0,0-58.7-5.371l-21.642-.12s7.706-.1,21.644-.016a374.655,374.655,0,0,1,58.744,5.264c6.141,1.072,12.54,2.4,19.132,4.1a167.379,167.379,0,0,1,20.2,6.45c6.789,2.722,13.746,5.988,19.893,10.871a28.352,28.352,0,0,1,7.723,8.987,14.45,14.45,0,0,1,.505,11.94,20.722,20.722,0,0,1-3.2,5.356c-.715.766-1.371,1.6-2.14,2.314-.786.7-1.5,1.486-2.355,2.118a61.794,61.794,0,0,1-10.758,6.957,137.8,137.8,0,0,1-24.658,9.406c-17.281,4.884-35.715,7.788-54.662,9.428a417.217,417.217,0,0,1-55.478.959,346.841,346.841,0,0,1-51.307-6.153,217.08,217.08,0,0,1-23.327-5.978,118.265,118.265,0,0,1-20.942-8.762,55.1,55.1,0,0,1-8.969-6.031A27.652,27.652,0,0,1,96.4,373.75l-.315-.559-.238-.594-.475-1.185a24.457,24.457,0,0,1-.645-2.447c-.075-.835-.172-1.67-.177-2.5l.074-1.242c.039-.41.135-.813.2-1.22a15.506,15.506,0,0,1,1.682-4.552,22.268,22.268,0,0,1,2.709-3.894,38.5,38.5,0,0,1,6.824-6.061,63.4,63.4,0,0,1,7.4-4.508,113.551,113.551,0,0,1,14.555-6.295,199.134,199.134,0,0,1,24.454-6.834c6.815-1.469,12.155-2.366,15.782-2.925s5.539-.8,5.539-.8" transform="translate(10.236 35.12)" fill="#fff"/>
            <path id="Path_569" data-name="Path 569" d="M314.79,422.1a11.362,11.362,0,0,0-.92-4.037c-1.032-2.541-3.78-5.7-8.116-8.558-8.709-5.732-23.264-10.545-41.589-13.489a253.312,253.312,0,0,0-30.236-2.96,290.292,290.292,0,0,0-34.86.641c-6.124.485-12.385,1.191-18.735,2.2a178.978,178.978,0,0,0-19.244,4.06c-3.227.869-6.447,1.874-9.635,3.045a77.554,77.554,0,0,0-9.4,4.1,38.05,38.05,0,0,0-8.525,5.9c-2.515,2.351-4.565,5.533-4.614,9.089.04,3.557,2.089,6.744,4.6,9.1a38.009,38.009,0,0,0,8.522,5.9,77.53,77.53,0,0,0,9.406,4.1c3.19,1.173,6.411,2.178,9.637,3.048A178.806,178.806,0,0,0,180.33,448.3c6.353,1.011,12.614,1.717,18.738,2.2a290.307,290.307,0,0,0,34.865.641,253.289,253.289,0,0,0,30.238-2.961c18.325-2.944,32.879-7.758,41.587-13.49,4.333-2.857,7.083-6.016,8.112-8.557a11.355,11.355,0,0,0,.92-4.036c-.012.167-.032.449-.074,1.058a5.761,5.761,0,0,1-.229,1.284,8.394,8.394,0,0,1-.573,1.712c-1.022,2.558-3.77,5.739-8.107,8.613-8.713,5.767-23.274,10.608-41.612,13.575a252.555,252.555,0,0,1-30.253,2.992,290.16,290.16,0,0,1-34.891-.621c-6.129-.482-12.4-1.187-18.755-2.2a178.821,178.821,0,0,1-19.273-4.061c-3.232-.87-6.46-1.876-9.657-3.051a77.547,77.547,0,0,1-9.432-4.113,38.205,38.205,0,0,1-8.579-5.941,16.819,16.819,0,0,1-3.266-4.15,9.957,9.957,0,0,1,.009-10.223,16.789,16.789,0,0,1,3.27-4.146,38.231,38.231,0,0,1,8.576-5.937,77.891,77.891,0,0,1,9.433-4.111c3.2-1.174,6.421-2.179,9.653-3.049a178.706,178.706,0,0,1,19.269-4.058c6.357-1.009,12.624-1.713,18.752-2.2a290.1,290.1,0,0,1,34.887-.621,252.6,252.6,0,0,1,30.253,2.991c18.337,2.966,32.9,7.808,41.615,13.575,4.334,2.875,7.085,6.055,8.107,8.613a8.359,8.359,0,0,1,.574,1.712,5.781,5.781,0,0,1,.229,1.286c.042.609.062.892.074,1.058" transform="translate(13.93 42.5)" fill="#fff"/>
            <path id="Path_570" data-name="Path 570" d="M76.366,264.46a3.538,3.538,0,1,1-3.539-3.539,3.538,3.538,0,0,1,3.539,3.539" transform="translate(7.501 28.246)" fill="#fff"/>
            <path id="Path_571" data-name="Path 571" d="M365.1,266.623a3.538,3.538,0,1,1-3.538-3.538,3.538,3.538,0,0,1,3.538,3.538" transform="translate(38.758 28.48)" fill="#fff"/>
            <path id="Path_572" data-name="Path 572" d="M234.884,384.264a3.538,3.538,0,1,1-3.539-3.539,3.539,3.539,0,0,1,3.539,3.539" transform="translate(24.661 41.215)" fill="#fff"/>
            <path id="Path_573" data-name="Path 573" d="M137.588,302.047a1.769,1.769,0,1,1-1.769-1.769,1.768,1.768,0,0,1,1.769,1.769" transform="translate(14.511 32.506)" fill="#fff"/>
            <path id="Path_574" data-name="Path 574" d="M336.1,340.732a1.769,1.769,0,1,1-1.769-1.769,1.769,1.769,0,0,1,1.769,1.769" transform="translate(36.001 36.694)" fill="#fff"/>
            <path id="Path_575" data-name="Path 575" d="M210.085,414.562a1.769,1.769,0,1,1-1.769-1.769,1.769,1.769,0,0,1,1.769,1.769" transform="translate(22.359 44.686)" fill="#fff"/>
            <path id="Path_576" data-name="Path 576" d="M127.393,135a.889.889,0,1,1-.889-.889.889.889,0,0,1,.889.889" transform="translate(13.598 14.518)" fill="#f2af6b"/>
          </g>
          <path id="Path_577" data-name="Path 577" d="M283.508,265.967c-42.968,11.376-84.383,10.513-129.523,0l-5.271-82.512c46.643,9.081,93.469,7.931,134.794-1.952Z" transform="translate(-4295.901 -23720.723)" fill="#f2af6b"/>
          <g id="Group_2301" data-name="Group 2301" transform="translate(-4147.187 -23539.219)" opacity="0.94">
            <g id="Group_2300" data-name="Group 2300">
              <g id="Group_2299" data-name="Group 2299" clip-path="url(#clip-path-15)">
                <path id="Path_578" data-name="Path 578" d="M283.508,265.967c-42.968,11.376-84.383,10.513-129.523,0l-5.271-82.512c46.643,9.081,93.469,7.931,134.794-1.952Z" transform="translate(-148.714 -181.504)" fill="#fff" opacity="0.9"/>
              </g>
            </g>
          </g>
          <path id="Path_579" data-name="Path 579" d="M275.5,246.4a1.172,1.172,0,0,1-.268.135l-.811.345c-.72.285-1.766.753-3.151,1.247a118.418,118.418,0,0,1-11.892,3.732,155.431,155.431,0,0,1-40.766,4.651,237.876,237.876,0,0,1-40.85-4.371c-5.168-.982-9.327-1.888-12.192-2.555-1.434-.325-2.541-.6-3.293-.789l-.853-.222a1.156,1.156,0,0,1-.286-.1,1.24,1.24,0,0,1,.3.038l.865.165,3.315.684c2.878.6,7.047,1.444,12.218,2.372a251,251,0,0,0,40.783,4.2,160.535,160.535,0,0,0,40.659-4.47c5.092-1.278,9.146-2.568,11.916-3.548,1.4-.461,2.451-.893,3.184-1.144l.832-.29a1.24,1.24,0,0,1,.29-.081" transform="translate(-4294.556 -23713.697)" fill="#f2af6b"/>
          <path id="Path_580" data-name="Path 580" d="M208.985,252.436c-5.391,1.591-10.923,1.171-16.545-.553v-29.37a41.543,41.543,0,0,1,16.545,0Z" transform="translate(-4291.167 -23716.373)" fill="#e8c49e"/>
          <path id="Path_581" data-name="Path 581" d="M233.224,252.242a1.073,1.073,0,0,1-.022-.226c-.007-.172-.017-.382-.028-.639q-.023-.9-.066-2.451c-.043-2.17-.1-5.258-.182-9.12-.116-7.793-.282-18.7-.471-31.345l.221.268a44.364,44.364,0,0,0-17.121.013l.235-.287c0,.183,0,.383.008.583.175,17.356.334,33.033.447,44.226l-.161-.194a38.647,38.647,0,0,0,7.21.878,26.546,26.546,0,0,0,5.446-.443,26.949,26.949,0,0,0,3.341-.878l.838-.293a1.84,1.84,0,0,1,.306-.092,1.29,1.29,0,0,1-.264.132l-.841.36a23.284,23.284,0,0,1-3.336.986,25.909,25.909,0,0,1-5.494.545,38.206,38.206,0,0,1-7.288-.8l-.158-.031,0-.163c-.157-11.193-.378-26.868-.622-44.226,0-.2,0-.4-.008-.583l0-.24.238-.045a44.617,44.617,0,0,1,17.339.013l.219.045v.222c.1,12.7.177,23.66.236,31.49.01,3.843.019,6.917.024,9.076-.006,1.018-.01,1.82-.012,2.408-.005.247-.01.448-.013.614a.664.664,0,0,1-.018.2" transform="translate(-4288.703 -23717.926)" fill="#f2af6b"/>
          <path id="Path_582" data-name="Path 582" d="M256.023,249.339c-4.43,2.4-10.259,2.715-16.545,2.355v-48.5a35.345,35.345,0,0,1,16.545,0Z" transform="translate(-4286.076 -23718.482)" fill="#dba264"/>
          <path id="Path_583" data-name="Path 583" d="M185.265,249.182a11.917,11.917,0,0,1-.057-1.242c-.017-.854-.038-1.987-.065-3.391-.031-2.952-.075-7.037-.129-11.91l.162.233c-4.43-1.624-9.974-3.167-15.927-2.644l-.03,0,.262-.287c-.014,6.052-.028,11.722-.04,16.544l-.152-.229a30.941,30.941,0,0,0,6.387,1.823c1.956.352,3.682.555,5.1.7l3.311.28a11.678,11.678,0,0,1,1.173.126,8.549,8.549,0,0,1-1.179.028c-.769-.015-1.9-.048-3.329-.144s-3.171-.263-5.151-.584a30.413,30.413,0,0,1-6.509-1.765l-.153-.063v-.167c-.012-4.822-.026-10.492-.04-16.544v-.268l.262-.019.031,0c6.094-.534,11.708,1.068,16.156,2.751l.164.062v.173c-.053,4.939-.1,9.081-.129,12.073q-.042,2.071-.065,3.334a8.476,8.476,0,0,1-.057,1.137" transform="translate(-4293.715 -23715.521)" fill="#f2af6b"/>
          <path id="Path_584" data-name="Path 584" d="M192.842,208.669a16.509,16.509,0,0,1-3.236.2c-2,.032-4.768-.009-7.818-.188s-5.8-.463-7.787-.73a16.6,16.6,0,0,1-3.191-.576,19.9,19.9,0,0,1,3.235.17c1.989.164,4.737.382,7.777.562s5.792.283,7.788.356a19.809,19.809,0,0,1,3.232.208" transform="translate(-4293.509 -23717.926)" fill="#f2af6b"/>
          <path id="Path_585" data-name="Path 585" d="M190.352,211.946a13.81,13.81,0,0,1-2.839-.013c-1.752-.082-4.17-.235-6.838-.439s-5.084-.422-6.827-.608a13.8,13.8,0,0,1-2.808-.42,14.034,14.034,0,0,1,2.848.013c1.751.082,4.166.235,6.83.439s5.074.422,6.817.607a13.992,13.992,0,0,1,2.817.421" transform="translate(-4293.484 -23717.594)" fill="#f2af6b"/>
          <path id="Path_586" data-name="Path 586" d="M196.944,217.664a9.76,9.76,0,0,1,.013-1.03q.042-1.062.113-2.858c.119-2.5.285-6.029.489-10.358l.212.223a237.079,237.079,0,0,1-30.619-1.7c-.289.242.39-.328.32-.268v.025l0,.03,0,.059-.007.117-.013.234-.028.468-.054.932q-.053.929-.107,1.847-.108,1.837-.213,3.624c-.142,2.38-.279,4.687-.411,6.893l-.24-.287c8.854,1.091,16.5,1.553,21.928,1.762l6.346.192,1.67.052a5.118,5.118,0,0,1,.608.04,3.475,3.475,0,0,1-.561.041c-.378.016-.976.041-1.719.049-1.478.022-3.638.024-6.356-.033-5.433-.114-13.1-.5-21.982-1.559l-.255-.03.014-.257c.124-2.208.255-4.514.389-6.894q.1-1.787.207-3.625.053-.918.106-1.847l.054-.932.027-.468.013-.235.007-.116,0-.059,0-.03v-.025c-.07.057.612-.513.325-.272a259.584,259.584,0,0,0,30.548,1.85h.226l-.016.223c-.3,4.375-.544,7.937-.718,10.467q-.136,1.765-.216,2.807a7.3,7.3,0,0,1-.1.946" transform="translate(-4294.022 -23718.578)" fill="#f2af6b"/>
          <path id="Path_587" data-name="Path 587" d="M197.7,222.29a13.214,13.214,0,0,1-2.131-2.958,10.5,10.5,0,0,1-1.642-3.265,13.253,13.253,0,0,1,2.131,2.958,10.529,10.529,0,0,1,1.642,3.265" transform="translate(-4291.008 -23716.98)" fill="#f2af6b"/>
          <path id="Path_588" data-name="Path 588" d="M35.334,124.731l14.047,84.974s21.437,40.143,78.408,49.192L118.6,183.043S65.913,166.75,35.334,124.731" transform="translate(-4308.175 -23726.869)" fill="#f2af6b"/>
          <g id="Group_2304" data-name="Group 2304" transform="translate(-4272.841 -23602.137)" opacity="0.942">
            <g id="Group_2303" data-name="Group 2303">
              <g id="Group_2302" data-name="Group 2302" clip-path="url(#clip-path-16)">
                <path id="Path_589" data-name="Path 589" d="M35.334,124.731l14.047,84.974s21.437,40.143,78.408,49.192L118.6,183.043S65.913,166.75,35.334,124.731" transform="translate(-35.334 -124.731)" fill="#fff" opacity="0.9"/>
              </g>
            </g>
          </g>
          <path id="Path_590" data-name="Path 590" d="M119.723,250.6a1.713,1.713,0,0,1-.362-.084l-1.047-.3-4.016-1.223c-1.734-.559-3.9-1.128-6.3-2.109l-3.878-1.476c-1.376-.516-2.83-1.062-4.3-1.77-2.965-1.359-6.259-2.754-9.607-4.637-3.43-1.726-6.909-3.907-10.546-6.224A105.947,105.947,0,0,1,58.5,214.427a63.256,63.256,0,0,1-7.637-10.654l-.019-.035-.008-.048c-2.563-16.56-4.814-31.108-6.432-41.557-.778-5.184-1.4-9.349-1.841-12.258-.2-1.41-.357-2.514-.469-3.3-.045-.352-.081-.635-.109-.856a1.224,1.224,0,0,1-.02-.294,1.237,1.237,0,0,1,.071.285c.041.219.094.5.16.849.135.785.325,1.883.566,3.286.477,2.9,1.159,7.06,2.008,12.233,1.667,10.442,3.986,24.98,6.626,41.526l-.027-.083a63.41,63.41,0,0,0,7.565,10.532,106.746,106.746,0,0,0,21.028,18.28c3.613,2.32,7.07,4.508,10.477,6.245,3.325,1.9,6.6,3.307,9.545,4.685,1.461.719,2.907,1.276,4.273,1.8l3.853,1.515c2.384,1.007,4.533,1.608,6.255,2.2l3.979,1.325,1.032.359a1.7,1.7,0,0,1,.346.141" transform="translate(-4307.458 -23724.629)" fill="#f2af6b"/>
          <path id="Path_591" data-name="Path 591" d="M114.233,224.1a1.1,1.1,0,0,1-.2.177l-.6.484-2.368,1.845-8.948,6.853-.141.107-.105-.145L90.929,218.28l.335.055-8.389,5.975-.28.2-.119-.322c-3.275-8.882-6.947-18.841-10.817-29.337l-1.553-4.222.529.03c-2.353,4.669-4.639,9.207-6.833,13.564l-.3.588-.216-.622L49.017,163.04l.3-.018-2.1,8.851q-.367,1.493-.575,2.332c-.064.244-.115.438-.157.6a.781.781,0,0,1-.068.2.722.722,0,0,1,.025-.208l.116-.605q.178-.848.5-2.349c.459-2.089,1.119-5.089,1.955-8.884l.117-.538.184.521c3.33,9.43,8.463,23.965,14.5,41.069l-.512-.033L70.119,190.4l.3-.593.229.623q.771,2.095,1.554,4.224c3.852,10.5,7.507,20.467,10.768,29.353l-.4-.123,8.416-5.939.2-.139.139.2,10.835,15.216-.246-.038,9.044-6.725,2.424-1.772.632-.447a1.054,1.054,0,0,1,.224-.139" transform="translate(-4306.975 -23722.789)" fill="#f2af6b"/>
          <path id="Path_592" data-name="Path 592" d="M108.593,182.543a5.015,5.015,0,0,1-1.2-.267c-.759-.205-1.849-.539-3.184-.981A109.128,109.128,0,0,1,84.2,172.26c-1.215-.709-2.184-1.305-2.84-1.74a4.922,4.922,0,0,1-.991-.72,5.123,5.123,0,0,1,1.1.528L84.4,171.9c2.472,1.324,5.92,3.091,9.818,4.853s7.5,3.175,10.131,4.154l3.118,1.152a5.037,5.037,0,0,1,1.126.481" transform="translate(-4303.3 -23721.99)" fill="#f2af6b"/>
          <path id="Path_593" data-name="Path 593" d="M109.623,185.1a11.8,11.8,0,0,1-2.752-.487A64.153,64.153,0,0,1,94.2,180.084a11.8,11.8,0,0,1-2.437-1.369,15.446,15.446,0,0,1,2.6,1c1.585.659,3.782,1.547,6.244,2.429s4.724,1.586,6.369,2.082a15.471,15.471,0,0,1,2.645.88" transform="translate(-4302.067 -23721.025)" fill="#f2af6b"/>
          <path id="Path_594" data-name="Path 594" d="M87.807,212.965c0,.7-.428,1.273-.954,1.273s-.955-.571-.955-1.273.428-1.273.955-1.273.954.57.954,1.273" transform="translate(-4302.701 -23717.455)" fill="#f2af6b"/>
          <path id="Path_595" data-name="Path 595" d="M69,188.726c0,.7-.428,1.273-.955,1.273s-.954-.571-.954-1.273.429-1.273.954-1.273.955.571.955,1.273" transform="translate(-4304.737 -23720.078)" fill="#f2af6b"/>
          <path id="Path_596" data-name="Path 596" d="M50.012,163.432c0,.7-.428,1.273-.955,1.273s-.954-.571-.954-1.273.428-1.273.954-1.273.955.571.955,1.273" transform="translate(-4306.793 -23722.816)" fill="#f2af6b"/>
          <path id="Path_597" data-name="Path 597" d="M378.891,138.391l-7.039,86.331s-20.546,36.919-77.131,38.325l6.993-86.92s49.36-2,77.177-37.735" transform="translate(-4280.095 -23725.391)" fill="#f2af6b"/>
          <path id="Path_598" data-name="Path 598" d="M372.61,135.918c-1.845-5.976-6.315-14.493-16.957-16.265l-12.58,116.123s23.616-4.716,24.25-17.66c.054-1.117,4.78-58.832,5.961-73.121a23.428,23.428,0,0,0-.674-9.077" transform="translate(-4274.861 -23727.418)" fill="#ffc993"/>
          <g id="Group_2307" data-name="Group 2307" transform="translate(-3985.373 -23586.998)" opacity="0.9">
            <g id="Group_2306" data-name="Group 2306" style="mix-blend-mode: normal;isolation: isolate">
              <g id="Group_2305" data-name="Group 2305" clip-path="url(#clip-path-17)">
                <path id="Path_599" data-name="Path 599" d="M378.891,138.391l-7.039,86.331s-20.546,36.919-77.131,38.325l6.993-86.92s49.36-2,77.177-37.735" transform="translate(-294.722 -138.391)" fill="#fff" opacity="0.94"/>
              </g>
            </g>
          </g>
          <path id="Path_600" data-name="Path 600" d="M375.784,158.249a51.2,51.2,0,0,0-9.018,27.919c-.057,2.864.111,5.83-.977,8.479s-3.934,4.861-6.7,4.1c-2.886-.791-4.177-4.2-6.707-5.8a7.475,7.475,0,0,0-7.59.161,12.712,12.712,0,0,0-4.986,6.064c-2.058,4.733-2.192,10.072-3.707,15.006s-5.232,9.907-10.389,10.132c-1.883.082-3.746-.489-5.629-.432-3.983.119-7.44,3.078-9.3,6.6s-2.414,7.569-2.941,11.519c0,0,30.162,2.874,64.027-37.11Z" transform="translate(-4278.674 -23723.24)" fill="#f5cca0"/>
          <path id="Path_601" data-name="Path 601" d="M326.107,205.691c0,1.071-.53,1.939-1.184,1.939s-1.184-.869-1.184-1.939.53-1.939,1.184-1.939,1.184.869,1.184,1.939" transform="translate(-4276.954 -23718.314)" fill="#f2af6b"/>
          <path id="Path_602" data-name="Path 602" d="M338.928,173.3c0,1.071-.53,1.939-1.184,1.939s-1.184-.869-1.184-1.939.53-1.939,1.184-1.939,1.184.869,1.184,1.939" transform="translate(-4275.566 -23721.82)" fill="#f2af6b"/>
          <path id="Path_603" data-name="Path 603" d="M374.982,162.008a2.657,2.657,0,0,1-.2.492c-.161.352-.372.816-.637,1.4-.6,1.259-1.432,3.034-2.487,5.273-2.193,4.567-5.291,11.018-9,18.736l-.121.253-.239-.151-21.338-13.5.421-.135-.887,2.182-13.779,33.736-.094.229-.216-.121c-5.321-2.993-9.662-5.4-12.678-7.036-1.511-.817-2.688-1.446-3.5-1.856l-.923-.451a1.475,1.475,0,0,1-.323-.143c.038-.109,1.809.649,4.855,2.233s7.429,3.922,12.778,6.87l-.31.11,13.651-33.788.887-2.182.131-.32.292.185,21.3,13.564-.36.1c3.781-7.68,6.943-14.1,9.182-18.644,1.108-2.213,1.988-3.968,2.612-5.213l.706-1.365a2.714,2.714,0,0,1,.266-.457" transform="translate(-4278.55 -23722.834)" fill="#f2af6b"/>
          <rect id="Rectangle_1806" data-name="Rectangle 1806" width="459.418" height="518.745" transform="translate(-4312 -23740.371)" fill="none"/>
          <rect id="Rectangle_1807" data-name="Rectangle 1807" width="459.418" height="518.745" transform="translate(-4312 -23740.371)" fill="none"/>
        </g>
      </g>
    </g>
  </g>
</svg>
